%TF.GenerationSoftware,KiCad,Pcbnew,(5.1.7)-1*%
%TF.CreationDate,2020-10-26T19:11:08+02:00*%
%TF.ProjectId,Opto-Board,4f70746f-2d42-46f6-9172-642e6b696361,rev?*%
%TF.SameCoordinates,Original*%
%TF.FileFunction,Soldermask,Bot*%
%TF.FilePolarity,Negative*%
%FSLAX46Y46*%
G04 Gerber Fmt 4.6, Leading zero omitted, Abs format (unit mm)*
G04 Created by KiCad (PCBNEW (5.1.7)-1) date 2020-10-26 19:11:08*
%MOMM*%
%LPD*%
G01*
G04 APERTURE LIST*
%ADD10C,1.900000*%
%ADD11O,1.700000X1.700000*%
%ADD12C,2.700000*%
G04 APERTURE END LIST*
D10*
%TO.C,D1*%
X115316000Y-138684000D03*
G36*
G01*
X111826000Y-139584000D02*
X111826000Y-137784000D01*
G75*
G02*
X111876000Y-137734000I50000J0D01*
G01*
X113676000Y-137734000D01*
G75*
G02*
X113726000Y-137784000I0J-50000D01*
G01*
X113726000Y-139584000D01*
G75*
G02*
X113676000Y-139634000I-50000J0D01*
G01*
X111876000Y-139634000D01*
G75*
G02*
X111826000Y-139584000I0J50000D01*
G01*
G37*
%TD*%
%TO.C,D2*%
G36*
G01*
X76007000Y-147944000D02*
X76007000Y-149744000D01*
G75*
G02*
X75957000Y-149794000I-50000J0D01*
G01*
X74157000Y-149794000D01*
G75*
G02*
X74107000Y-149744000I0J50000D01*
G01*
X74107000Y-147944000D01*
G75*
G02*
X74157000Y-147894000I50000J0D01*
G01*
X75957000Y-147894000D01*
G75*
G02*
X76007000Y-147944000I0J-50000D01*
G01*
G37*
X72517000Y-148844000D03*
%TD*%
%TO.C,D3*%
X72517000Y-108204000D03*
G36*
G01*
X76007000Y-107304000D02*
X76007000Y-109104000D01*
G75*
G02*
X75957000Y-109154000I-50000J0D01*
G01*
X74157000Y-109154000D01*
G75*
G02*
X74107000Y-109104000I0J50000D01*
G01*
X74107000Y-107304000D01*
G75*
G02*
X74157000Y-107254000I50000J0D01*
G01*
X75957000Y-107254000D01*
G75*
G02*
X76007000Y-107304000I0J-50000D01*
G01*
G37*
%TD*%
%TO.C,D4*%
G36*
G01*
X99443500Y-149744000D02*
X99443500Y-147944000D01*
G75*
G02*
X99493500Y-147894000I50000J0D01*
G01*
X101293500Y-147894000D01*
G75*
G02*
X101343500Y-147944000I0J-50000D01*
G01*
X101343500Y-149744000D01*
G75*
G02*
X101293500Y-149794000I-50000J0D01*
G01*
X99493500Y-149794000D01*
G75*
G02*
X99443500Y-149744000I0J50000D01*
G01*
G37*
X102933500Y-148844000D03*
%TD*%
%TO.C,D5*%
G36*
G01*
X99443500Y-109104000D02*
X99443500Y-107304000D01*
G75*
G02*
X99493500Y-107254000I50000J0D01*
G01*
X101293500Y-107254000D01*
G75*
G02*
X101343500Y-107304000I0J-50000D01*
G01*
X101343500Y-109104000D01*
G75*
G02*
X101293500Y-109154000I-50000J0D01*
G01*
X99493500Y-109154000D01*
G75*
G02*
X99443500Y-109104000I0J50000D01*
G01*
G37*
X102933500Y-108204000D03*
%TD*%
%TO.C,D6*%
X72517000Y-138684000D03*
G36*
G01*
X76007000Y-137784000D02*
X76007000Y-139584000D01*
G75*
G02*
X75957000Y-139634000I-50000J0D01*
G01*
X74157000Y-139634000D01*
G75*
G02*
X74107000Y-139584000I0J50000D01*
G01*
X74107000Y-137784000D01*
G75*
G02*
X74157000Y-137734000I50000J0D01*
G01*
X75957000Y-137734000D01*
G75*
G02*
X76007000Y-137784000I0J-50000D01*
G01*
G37*
%TD*%
%TO.C,D7*%
G36*
G01*
X76007000Y-97144000D02*
X76007000Y-98944000D01*
G75*
G02*
X75957000Y-98994000I-50000J0D01*
G01*
X74157000Y-98994000D01*
G75*
G02*
X74107000Y-98944000I0J50000D01*
G01*
X74107000Y-97144000D01*
G75*
G02*
X74157000Y-97094000I50000J0D01*
G01*
X75957000Y-97094000D01*
G75*
G02*
X76007000Y-97144000I0J-50000D01*
G01*
G37*
X72517000Y-98044000D03*
%TD*%
%TO.C,D8*%
X102933500Y-138684000D03*
G36*
G01*
X99443500Y-139584000D02*
X99443500Y-137784000D01*
G75*
G02*
X99493500Y-137734000I50000J0D01*
G01*
X101293500Y-137734000D01*
G75*
G02*
X101343500Y-137784000I0J-50000D01*
G01*
X101343500Y-139584000D01*
G75*
G02*
X101293500Y-139634000I-50000J0D01*
G01*
X99493500Y-139634000D01*
G75*
G02*
X99443500Y-139584000I0J50000D01*
G01*
G37*
%TD*%
%TO.C,D9*%
G36*
G01*
X99443500Y-98944000D02*
X99443500Y-97144000D01*
G75*
G02*
X99493500Y-97094000I50000J0D01*
G01*
X101293500Y-97094000D01*
G75*
G02*
X101343500Y-97144000I0J-50000D01*
G01*
X101343500Y-98944000D01*
G75*
G02*
X101293500Y-98994000I-50000J0D01*
G01*
X99493500Y-98994000D01*
G75*
G02*
X99443500Y-98944000I0J50000D01*
G01*
G37*
X102933500Y-98044000D03*
%TD*%
%TO.C,D10*%
G36*
G01*
X76007000Y-127624000D02*
X76007000Y-129424000D01*
G75*
G02*
X75957000Y-129474000I-50000J0D01*
G01*
X74157000Y-129474000D01*
G75*
G02*
X74107000Y-129424000I0J50000D01*
G01*
X74107000Y-127624000D01*
G75*
G02*
X74157000Y-127574000I50000J0D01*
G01*
X75957000Y-127574000D01*
G75*
G02*
X76007000Y-127624000I0J-50000D01*
G01*
G37*
X72517000Y-128524000D03*
%TD*%
%TO.C,D11*%
G36*
G01*
X76007000Y-86984000D02*
X76007000Y-88784000D01*
G75*
G02*
X75957000Y-88834000I-50000J0D01*
G01*
X74157000Y-88834000D01*
G75*
G02*
X74107000Y-88784000I0J50000D01*
G01*
X74107000Y-86984000D01*
G75*
G02*
X74157000Y-86934000I50000J0D01*
G01*
X75957000Y-86934000D01*
G75*
G02*
X76007000Y-86984000I0J-50000D01*
G01*
G37*
X72517000Y-87884000D03*
%TD*%
%TO.C,D12*%
X102933500Y-128524000D03*
G36*
G01*
X99443500Y-129424000D02*
X99443500Y-127624000D01*
G75*
G02*
X99493500Y-127574000I50000J0D01*
G01*
X101293500Y-127574000D01*
G75*
G02*
X101343500Y-127624000I0J-50000D01*
G01*
X101343500Y-129424000D01*
G75*
G02*
X101293500Y-129474000I-50000J0D01*
G01*
X99493500Y-129474000D01*
G75*
G02*
X99443500Y-129424000I0J50000D01*
G01*
G37*
%TD*%
%TO.C,D13*%
G36*
G01*
X99443500Y-88784000D02*
X99443500Y-86984000D01*
G75*
G02*
X99493500Y-86934000I50000J0D01*
G01*
X101293500Y-86934000D01*
G75*
G02*
X101343500Y-86984000I0J-50000D01*
G01*
X101343500Y-88784000D01*
G75*
G02*
X101293500Y-88834000I-50000J0D01*
G01*
X99493500Y-88834000D01*
G75*
G02*
X99443500Y-88784000I0J50000D01*
G01*
G37*
X102933500Y-87884000D03*
%TD*%
%TO.C,D14*%
G36*
G01*
X76007000Y-117464000D02*
X76007000Y-119264000D01*
G75*
G02*
X75957000Y-119314000I-50000J0D01*
G01*
X74157000Y-119314000D01*
G75*
G02*
X74107000Y-119264000I0J50000D01*
G01*
X74107000Y-117464000D01*
G75*
G02*
X74157000Y-117414000I50000J0D01*
G01*
X75957000Y-117414000D01*
G75*
G02*
X76007000Y-117464000I0J-50000D01*
G01*
G37*
X72517000Y-118364000D03*
%TD*%
%TO.C,D15*%
X72517000Y-77724000D03*
G36*
G01*
X76007000Y-76824000D02*
X76007000Y-78624000D01*
G75*
G02*
X75957000Y-78674000I-50000J0D01*
G01*
X74157000Y-78674000D01*
G75*
G02*
X74107000Y-78624000I0J50000D01*
G01*
X74107000Y-76824000D01*
G75*
G02*
X74157000Y-76774000I50000J0D01*
G01*
X75957000Y-76774000D01*
G75*
G02*
X76007000Y-76824000I0J-50000D01*
G01*
G37*
%TD*%
%TO.C,D16*%
X102933500Y-118364000D03*
G36*
G01*
X99443500Y-119264000D02*
X99443500Y-117464000D01*
G75*
G02*
X99493500Y-117414000I50000J0D01*
G01*
X101293500Y-117414000D01*
G75*
G02*
X101343500Y-117464000I0J-50000D01*
G01*
X101343500Y-119264000D01*
G75*
G02*
X101293500Y-119314000I-50000J0D01*
G01*
X99493500Y-119314000D01*
G75*
G02*
X99443500Y-119264000I0J50000D01*
G01*
G37*
%TD*%
%TO.C,D17*%
X102933500Y-77724000D03*
G36*
G01*
X99443500Y-78624000D02*
X99443500Y-76824000D01*
G75*
G02*
X99493500Y-76774000I50000J0D01*
G01*
X101293500Y-76774000D01*
G75*
G02*
X101343500Y-76824000I0J-50000D01*
G01*
X101343500Y-78624000D01*
G75*
G02*
X101293500Y-78674000I-50000J0D01*
G01*
X99493500Y-78674000D01*
G75*
G02*
X99443500Y-78624000I0J50000D01*
G01*
G37*
%TD*%
D11*
%TO.C,U1*%
X90995500Y-146304000D03*
X83375500Y-148844000D03*
X90995500Y-148844000D03*
G36*
G01*
X82525500Y-147104000D02*
X82525500Y-145504000D01*
G75*
G02*
X82575500Y-145454000I50000J0D01*
G01*
X84175500Y-145454000D01*
G75*
G02*
X84225500Y-145504000I0J-50000D01*
G01*
X84225500Y-147104000D01*
G75*
G02*
X84175500Y-147154000I-50000J0D01*
G01*
X82575500Y-147154000D01*
G75*
G02*
X82525500Y-147104000I0J50000D01*
G01*
G37*
%TD*%
%TO.C,U2*%
X90995500Y-105664000D03*
X83375500Y-108204000D03*
X90995500Y-108204000D03*
G36*
G01*
X82525500Y-106464000D02*
X82525500Y-104864000D01*
G75*
G02*
X82575500Y-104814000I50000J0D01*
G01*
X84175500Y-104814000D01*
G75*
G02*
X84225500Y-104864000I0J-50000D01*
G01*
X84225500Y-106464000D01*
G75*
G02*
X84175500Y-106514000I-50000J0D01*
G01*
X82575500Y-106514000D01*
G75*
G02*
X82525500Y-106464000I0J50000D01*
G01*
G37*
%TD*%
%TO.C,U3*%
G36*
G01*
X82525500Y-136944000D02*
X82525500Y-135344000D01*
G75*
G02*
X82575500Y-135294000I50000J0D01*
G01*
X84175500Y-135294000D01*
G75*
G02*
X84225500Y-135344000I0J-50000D01*
G01*
X84225500Y-136944000D01*
G75*
G02*
X84175500Y-136994000I-50000J0D01*
G01*
X82575500Y-136994000D01*
G75*
G02*
X82525500Y-136944000I0J50000D01*
G01*
G37*
X90995500Y-138684000D03*
X83375500Y-138684000D03*
X90995500Y-136144000D03*
%TD*%
%TO.C,U4*%
G36*
G01*
X82525500Y-96304000D02*
X82525500Y-94704000D01*
G75*
G02*
X82575500Y-94654000I50000J0D01*
G01*
X84175500Y-94654000D01*
G75*
G02*
X84225500Y-94704000I0J-50000D01*
G01*
X84225500Y-96304000D01*
G75*
G02*
X84175500Y-96354000I-50000J0D01*
G01*
X82575500Y-96354000D01*
G75*
G02*
X82525500Y-96304000I0J50000D01*
G01*
G37*
X90995500Y-98044000D03*
X83375500Y-98044000D03*
X90995500Y-95504000D03*
%TD*%
%TO.C,U5*%
X90995500Y-125984000D03*
X83375500Y-128524000D03*
X90995500Y-128524000D03*
G36*
G01*
X82525500Y-126784000D02*
X82525500Y-125184000D01*
G75*
G02*
X82575500Y-125134000I50000J0D01*
G01*
X84175500Y-125134000D01*
G75*
G02*
X84225500Y-125184000I0J-50000D01*
G01*
X84225500Y-126784000D01*
G75*
G02*
X84175500Y-126834000I-50000J0D01*
G01*
X82575500Y-126834000D01*
G75*
G02*
X82525500Y-126784000I0J50000D01*
G01*
G37*
%TD*%
%TO.C,U6*%
X90995500Y-85344000D03*
X83375500Y-87884000D03*
X90995500Y-87884000D03*
G36*
G01*
X82525500Y-86144000D02*
X82525500Y-84544000D01*
G75*
G02*
X82575500Y-84494000I50000J0D01*
G01*
X84175500Y-84494000D01*
G75*
G02*
X84225500Y-84544000I0J-50000D01*
G01*
X84225500Y-86144000D01*
G75*
G02*
X84175500Y-86194000I-50000J0D01*
G01*
X82575500Y-86194000D01*
G75*
G02*
X82525500Y-86144000I0J50000D01*
G01*
G37*
%TD*%
%TO.C,U7*%
G36*
G01*
X82525500Y-116624000D02*
X82525500Y-115024000D01*
G75*
G02*
X82575500Y-114974000I50000J0D01*
G01*
X84175500Y-114974000D01*
G75*
G02*
X84225500Y-115024000I0J-50000D01*
G01*
X84225500Y-116624000D01*
G75*
G02*
X84175500Y-116674000I-50000J0D01*
G01*
X82575500Y-116674000D01*
G75*
G02*
X82525500Y-116624000I0J50000D01*
G01*
G37*
X90995500Y-118364000D03*
X83375500Y-118364000D03*
X90995500Y-115824000D03*
%TD*%
%TO.C,U8*%
G36*
G01*
X82525500Y-75984000D02*
X82525500Y-74384000D01*
G75*
G02*
X82575500Y-74334000I50000J0D01*
G01*
X84175500Y-74334000D01*
G75*
G02*
X84225500Y-74384000I0J-50000D01*
G01*
X84225500Y-75984000D01*
G75*
G02*
X84175500Y-76034000I-50000J0D01*
G01*
X82575500Y-76034000D01*
G75*
G02*
X82525500Y-75984000I0J50000D01*
G01*
G37*
X90995500Y-77724000D03*
X83375500Y-77724000D03*
X90995500Y-75184000D03*
%TD*%
%TO.C,J1*%
G36*
G01*
X56485000Y-73650000D02*
X59085000Y-73650000D01*
G75*
G02*
X59135000Y-73700000I0J-50000D01*
G01*
X59135000Y-76300000D01*
G75*
G02*
X59085000Y-76350000I-50000J0D01*
G01*
X56485000Y-76350000D01*
G75*
G02*
X56435000Y-76300000I0J50000D01*
G01*
X56435000Y-73700000D01*
G75*
G02*
X56485000Y-73650000I50000J0D01*
G01*
G37*
D12*
X57785000Y-80000000D03*
X57785000Y-85000000D03*
X57785000Y-90000000D03*
X57785000Y-95000000D03*
X57785000Y-100000000D03*
X57785000Y-105000000D03*
X57785000Y-110000000D03*
%TD*%
%TO.C,J2*%
G36*
G01*
X56485000Y-113650000D02*
X59085000Y-113650000D01*
G75*
G02*
X59135000Y-113700000I0J-50000D01*
G01*
X59135000Y-116300000D01*
G75*
G02*
X59085000Y-116350000I-50000J0D01*
G01*
X56485000Y-116350000D01*
G75*
G02*
X56435000Y-116300000I0J50000D01*
G01*
X56435000Y-113700000D01*
G75*
G02*
X56485000Y-113650000I50000J0D01*
G01*
G37*
X57785000Y-120000000D03*
X57785000Y-125000000D03*
X57785000Y-130000000D03*
X57785000Y-135000000D03*
X57785000Y-140000000D03*
X57785000Y-145000000D03*
X57785000Y-150000000D03*
%TD*%
%TO.C,J3*%
G36*
G01*
X118711500Y-111350000D02*
X116111500Y-111350000D01*
G75*
G02*
X116061500Y-111300000I0J50000D01*
G01*
X116061500Y-108700000D01*
G75*
G02*
X116111500Y-108650000I50000J0D01*
G01*
X118711500Y-108650000D01*
G75*
G02*
X118761500Y-108700000I0J-50000D01*
G01*
X118761500Y-111300000D01*
G75*
G02*
X118711500Y-111350000I-50000J0D01*
G01*
G37*
X117411500Y-105000000D03*
X117411500Y-100000000D03*
X117411500Y-95000000D03*
X117411500Y-90000000D03*
X117411500Y-85000000D03*
X117411500Y-80000000D03*
X117411500Y-75000000D03*
%TD*%
%TO.C,J4*%
G36*
G01*
X118711500Y-127350000D02*
X116111500Y-127350000D01*
G75*
G02*
X116061500Y-127300000I0J50000D01*
G01*
X116061500Y-124700000D01*
G75*
G02*
X116111500Y-124650000I50000J0D01*
G01*
X118711500Y-124650000D01*
G75*
G02*
X118761500Y-124700000I0J-50000D01*
G01*
X118761500Y-127300000D01*
G75*
G02*
X118711500Y-127350000I-50000J0D01*
G01*
G37*
X117411500Y-121000000D03*
%TD*%
M02*
