%TF.GenerationSoftware,KiCad,Pcbnew,(5.1.7)-1*%
%TF.CreationDate,2020-10-26T19:11:08+02:00*%
%TF.ProjectId,Opto-Board,4f70746f-2d42-46f6-9172-642e6b696361,rev?*%
%TF.SameCoordinates,Original*%
%TF.FileFunction,Copper,L2,Bot*%
%TF.FilePolarity,Positive*%
%FSLAX46Y46*%
G04 Gerber Fmt 4.6, Leading zero omitted, Abs format (unit mm)*
G04 Created by KiCad (PCBNEW (5.1.7)-1) date 2020-10-26 19:11:08*
%MOMM*%
%LPD*%
G01*
G04 APERTURE LIST*
%TA.AperFunction,ComponentPad*%
%ADD10C,1.800000*%
%TD*%
%TA.AperFunction,ComponentPad*%
%ADD11R,1.800000X1.800000*%
%TD*%
%TA.AperFunction,ComponentPad*%
%ADD12O,1.600000X1.600000*%
%TD*%
%TA.AperFunction,ComponentPad*%
%ADD13R,1.600000X1.600000*%
%TD*%
%TA.AperFunction,ComponentPad*%
%ADD14R,2.600000X2.600000*%
%TD*%
%TA.AperFunction,ComponentPad*%
%ADD15C,2.600000*%
%TD*%
%TA.AperFunction,ViaPad*%
%ADD16C,4.500000*%
%TD*%
%TA.AperFunction,ViaPad*%
%ADD17C,2.000000*%
%TD*%
%TA.AperFunction,Conductor*%
%ADD18C,1.000000*%
%TD*%
G04 APERTURE END LIST*
D10*
%TO.P,D1,2*%
%TO.N,Net-(D1-Pad2)*%
X115316000Y-138684000D03*
D11*
%TO.P,D1,1*%
%TO.N,GND2*%
X112776000Y-138684000D03*
%TD*%
%TO.P,D2,1*%
%TO.N,IN1-*%
X75057000Y-148844000D03*
D10*
%TO.P,D2,2*%
%TO.N,Net-(D2-Pad2)*%
X72517000Y-148844000D03*
%TD*%
%TO.P,D3,2*%
%TO.N,Net-(D3-Pad2)*%
X72517000Y-108204000D03*
D11*
%TO.P,D3,1*%
%TO.N,IN5-*%
X75057000Y-108204000D03*
%TD*%
%TO.P,D4,1*%
%TO.N,OUT1*%
X100393500Y-148844000D03*
D10*
%TO.P,D4,2*%
%TO.N,Net-(D4-Pad2)*%
X102933500Y-148844000D03*
%TD*%
D11*
%TO.P,D5,1*%
%TO.N,OUT5*%
X100393500Y-108204000D03*
D10*
%TO.P,D5,2*%
%TO.N,Net-(D5-Pad2)*%
X102933500Y-108204000D03*
%TD*%
%TO.P,D6,2*%
%TO.N,Net-(D6-Pad2)*%
X72517000Y-138684000D03*
D11*
%TO.P,D6,1*%
%TO.N,IN2-*%
X75057000Y-138684000D03*
%TD*%
%TO.P,D7,1*%
%TO.N,IN6-*%
X75057000Y-98044000D03*
D10*
%TO.P,D7,2*%
%TO.N,Net-(D7-Pad2)*%
X72517000Y-98044000D03*
%TD*%
%TO.P,D8,2*%
%TO.N,Net-(D8-Pad2)*%
X102933500Y-138684000D03*
D11*
%TO.P,D8,1*%
%TO.N,OUT2*%
X100393500Y-138684000D03*
%TD*%
%TO.P,D9,1*%
%TO.N,OUT6*%
X100393500Y-98044000D03*
D10*
%TO.P,D9,2*%
%TO.N,Net-(D9-Pad2)*%
X102933500Y-98044000D03*
%TD*%
D11*
%TO.P,D10,1*%
%TO.N,IN3-*%
X75057000Y-128524000D03*
D10*
%TO.P,D10,2*%
%TO.N,Net-(D10-Pad2)*%
X72517000Y-128524000D03*
%TD*%
D11*
%TO.P,D11,1*%
%TO.N,IN7-*%
X75057000Y-87884000D03*
D10*
%TO.P,D11,2*%
%TO.N,Net-(D11-Pad2)*%
X72517000Y-87884000D03*
%TD*%
%TO.P,D12,2*%
%TO.N,Net-(D12-Pad2)*%
X102933500Y-128524000D03*
D11*
%TO.P,D12,1*%
%TO.N,OUT3*%
X100393500Y-128524000D03*
%TD*%
%TO.P,D13,1*%
%TO.N,OUT7*%
X100393500Y-87884000D03*
D10*
%TO.P,D13,2*%
%TO.N,Net-(D13-Pad2)*%
X102933500Y-87884000D03*
%TD*%
D11*
%TO.P,D14,1*%
%TO.N,IN4-*%
X75057000Y-118364000D03*
D10*
%TO.P,D14,2*%
%TO.N,Net-(D14-Pad2)*%
X72517000Y-118364000D03*
%TD*%
%TO.P,D15,2*%
%TO.N,Net-(D15-Pad2)*%
X72517000Y-77724000D03*
D11*
%TO.P,D15,1*%
%TO.N,IN8-*%
X75057000Y-77724000D03*
%TD*%
D10*
%TO.P,D16,2*%
%TO.N,Net-(D16-Pad2)*%
X102933500Y-118364000D03*
D11*
%TO.P,D16,1*%
%TO.N,OUT4*%
X100393500Y-118364000D03*
%TD*%
D10*
%TO.P,D17,2*%
%TO.N,Net-(D17-Pad2)*%
X102933500Y-77724000D03*
D11*
%TO.P,D17,1*%
%TO.N,OUT8*%
X100393500Y-77724000D03*
%TD*%
D12*
%TO.P,U1,4*%
%TO.N,OUT1*%
X90995500Y-146304000D03*
%TO.P,U1,2*%
%TO.N,IN1-*%
X83375500Y-148844000D03*
%TO.P,U1,3*%
%TO.N,GND2*%
X90995500Y-148844000D03*
D13*
%TO.P,U1,1*%
%TO.N,Net-(R4-Pad1)*%
X83375500Y-146304000D03*
%TD*%
D12*
%TO.P,U2,4*%
%TO.N,OUT5*%
X90995500Y-105664000D03*
%TO.P,U2,2*%
%TO.N,IN5-*%
X83375500Y-108204000D03*
%TO.P,U2,3*%
%TO.N,GND2*%
X90995500Y-108204000D03*
D13*
%TO.P,U2,1*%
%TO.N,Net-(R5-Pad1)*%
X83375500Y-105664000D03*
%TD*%
%TO.P,U3,1*%
%TO.N,Net-(R12-Pad1)*%
X83375500Y-136144000D03*
D12*
%TO.P,U3,3*%
%TO.N,GND2*%
X90995500Y-138684000D03*
%TO.P,U3,2*%
%TO.N,IN2-*%
X83375500Y-138684000D03*
%TO.P,U3,4*%
%TO.N,OUT2*%
X90995500Y-136144000D03*
%TD*%
D13*
%TO.P,U4,1*%
%TO.N,Net-(R13-Pad1)*%
X83375500Y-95504000D03*
D12*
%TO.P,U4,3*%
%TO.N,GND2*%
X90995500Y-98044000D03*
%TO.P,U4,2*%
%TO.N,IN6-*%
X83375500Y-98044000D03*
%TO.P,U4,4*%
%TO.N,OUT6*%
X90995500Y-95504000D03*
%TD*%
%TO.P,U5,4*%
%TO.N,OUT3*%
X90995500Y-125984000D03*
%TO.P,U5,2*%
%TO.N,IN3-*%
X83375500Y-128524000D03*
%TO.P,U5,3*%
%TO.N,GND2*%
X90995500Y-128524000D03*
D13*
%TO.P,U5,1*%
%TO.N,Net-(R20-Pad1)*%
X83375500Y-125984000D03*
%TD*%
D12*
%TO.P,U6,4*%
%TO.N,OUT7*%
X90995500Y-85344000D03*
%TO.P,U6,2*%
%TO.N,IN7-*%
X83375500Y-87884000D03*
%TO.P,U6,3*%
%TO.N,GND2*%
X90995500Y-87884000D03*
D13*
%TO.P,U6,1*%
%TO.N,Net-(R21-Pad1)*%
X83375500Y-85344000D03*
%TD*%
%TO.P,U7,1*%
%TO.N,Net-(R28-Pad1)*%
X83375500Y-115824000D03*
D12*
%TO.P,U7,3*%
%TO.N,GND2*%
X90995500Y-118364000D03*
%TO.P,U7,2*%
%TO.N,IN4-*%
X83375500Y-118364000D03*
%TO.P,U7,4*%
%TO.N,OUT4*%
X90995500Y-115824000D03*
%TD*%
D13*
%TO.P,U8,1*%
%TO.N,Net-(R29-Pad1)*%
X83375500Y-75184000D03*
D12*
%TO.P,U8,3*%
%TO.N,GND2*%
X90995500Y-77724000D03*
%TO.P,U8,2*%
%TO.N,IN8-*%
X83375500Y-77724000D03*
%TO.P,U8,4*%
%TO.N,OUT8*%
X90995500Y-75184000D03*
%TD*%
D14*
%TO.P,J1,1*%
%TO.N,IN8+*%
X57785000Y-75000000D03*
D15*
%TO.P,J1,2*%
%TO.N,IN8-*%
X57785000Y-80000000D03*
%TO.P,J1,3*%
%TO.N,IN7+*%
X57785000Y-85000000D03*
%TO.P,J1,4*%
%TO.N,IN7-*%
X57785000Y-90000000D03*
%TO.P,J1,5*%
%TO.N,IN6+*%
X57785000Y-95000000D03*
%TO.P,J1,6*%
%TO.N,IN6-*%
X57785000Y-100000000D03*
%TO.P,J1,7*%
%TO.N,IN5+*%
X57785000Y-105000000D03*
%TO.P,J1,8*%
%TO.N,IN5-*%
X57785000Y-110000000D03*
%TD*%
D14*
%TO.P,J2,1*%
%TO.N,IN4+*%
X57785000Y-115000000D03*
D15*
%TO.P,J2,2*%
%TO.N,IN4-*%
X57785000Y-120000000D03*
%TO.P,J2,3*%
%TO.N,IN3+*%
X57785000Y-125000000D03*
%TO.P,J2,4*%
%TO.N,IN3-*%
X57785000Y-130000000D03*
%TO.P,J2,5*%
%TO.N,IN2+*%
X57785000Y-135000000D03*
%TO.P,J2,6*%
%TO.N,IN2-*%
X57785000Y-140000000D03*
%TO.P,J2,7*%
%TO.N,IN1+*%
X57785000Y-145000000D03*
%TO.P,J2,8*%
%TO.N,IN1-*%
X57785000Y-150000000D03*
%TD*%
D14*
%TO.P,J3,1*%
%TO.N,OUT1*%
X117411500Y-110000000D03*
D15*
%TO.P,J3,2*%
%TO.N,OUT2*%
X117411500Y-105000000D03*
%TO.P,J3,3*%
%TO.N,OUT3*%
X117411500Y-100000000D03*
%TO.P,J3,4*%
%TO.N,OUT4*%
X117411500Y-95000000D03*
%TO.P,J3,5*%
%TO.N,OUT5*%
X117411500Y-90000000D03*
%TO.P,J3,6*%
%TO.N,OUT6*%
X117411500Y-85000000D03*
%TO.P,J3,7*%
%TO.N,OUT7*%
X117411500Y-80000000D03*
%TO.P,J3,8*%
%TO.N,OUT8*%
X117411500Y-75000000D03*
%TD*%
D14*
%TO.P,J4,1*%
%TO.N,GND2*%
X117411500Y-126000000D03*
D15*
%TO.P,J4,2*%
%TO.N,VCC*%
X117411500Y-121000000D03*
%TD*%
D16*
%TO.N,*%
X57150000Y-158750000D03*
X118110000Y-158750000D03*
X118110000Y-66040000D03*
X57150000Y-66040000D03*
D17*
%TO.N,IN5+*%
X73799700Y-104203500D03*
%TO.N,IN6+*%
X73875900Y-94043500D03*
%TO.N,IN7+*%
X73672700Y-83883500D03*
%TO.N,IN8+*%
X73723500Y-73787000D03*
%TO.N,IN1+*%
X73825100Y-144843500D03*
%TO.N,IN2+*%
X73748900Y-134683500D03*
%TO.N,IN3+*%
X73825100Y-124523500D03*
%TO.N,IN4+*%
X73698100Y-114363500D03*
%TD*%
D18*
%TO.N,OUT1*%
X97853500Y-146304000D02*
X100393500Y-148844000D01*
X90995500Y-146304000D02*
X97853500Y-146304000D01*
X97853500Y-146304000D02*
X104800400Y-146304000D01*
X104800400Y-146304000D02*
X109829600Y-141274800D01*
X109829600Y-117627400D02*
X117411500Y-110045500D01*
X109829600Y-141274800D02*
X109829600Y-117627400D01*
%TO.N,OUT5*%
X97853500Y-105664000D02*
X100393500Y-108204000D01*
X90995500Y-105664000D02*
X97853500Y-105664000D01*
X97853500Y-105664000D02*
X105257600Y-105664000D01*
X105257600Y-105664000D02*
X112445800Y-98475800D01*
X112445800Y-94691200D02*
X117411500Y-89725500D01*
X112445800Y-98475800D02*
X112445800Y-94691200D01*
%TO.N,OUT2*%
X97853500Y-136144000D02*
X100393500Y-138684000D01*
X97104200Y-136144000D02*
X106273600Y-136144000D01*
X97104200Y-136144000D02*
X97853500Y-136144000D01*
X90995500Y-136144000D02*
X97104200Y-136144000D01*
X106273600Y-136144000D02*
X108229400Y-134188200D01*
X108229400Y-116267598D02*
X114122200Y-110374798D01*
X108229400Y-134188200D02*
X108229400Y-116267598D01*
X114122200Y-108254800D02*
X117411500Y-104965500D01*
X114122200Y-110374798D02*
X114122200Y-108254800D01*
%TO.N,OUT6*%
X97853500Y-95504000D02*
X100393500Y-98044000D01*
X90995500Y-95504000D02*
X97853500Y-95504000D01*
X97853500Y-95504000D02*
X97878900Y-95529400D01*
X97878900Y-95529400D02*
X109093000Y-95529400D01*
X109093000Y-95529400D02*
X114325400Y-90297000D01*
X114325400Y-87731600D02*
X117411500Y-84645500D01*
X114325400Y-90297000D02*
X114325400Y-87731600D01*
%TO.N,OUT3*%
X97853500Y-125984000D02*
X100393500Y-128524000D01*
X90995500Y-125984000D02*
X97853500Y-125984000D01*
X97853500Y-125984000D02*
X102692200Y-125984000D01*
X102692200Y-125984000D02*
X106781600Y-121894600D01*
X106781600Y-121894600D02*
X106781600Y-114477800D01*
X106781600Y-114477800D02*
X112420400Y-108839000D01*
X112420400Y-104876600D02*
X117411500Y-99885500D01*
X112420400Y-108839000D02*
X112420400Y-104876600D01*
%TO.N,OUT7*%
X97853500Y-85344000D02*
X100393500Y-87884000D01*
X90995500Y-85344000D02*
X97853500Y-85344000D01*
X111633000Y-85344000D02*
X117411500Y-79565500D01*
X97853500Y-85344000D02*
X111633000Y-85344000D01*
%TO.N,OUT4*%
X97853500Y-115824000D02*
X100393500Y-118364000D01*
X90995500Y-115824000D02*
X97853500Y-115824000D01*
X97853500Y-115824000D02*
X103200200Y-115824000D01*
X103200200Y-115824000D02*
X110896400Y-108127800D01*
X110896400Y-108127800D02*
X110896400Y-102387400D01*
X110896400Y-102387400D02*
X114274600Y-99009200D01*
X114274600Y-97942400D02*
X117411500Y-94805500D01*
X114274600Y-99009200D02*
X114274600Y-97942400D01*
%TO.N,OUT8*%
X90995500Y-75184000D02*
X97663000Y-75184000D01*
X100203000Y-77724000D02*
X100393500Y-77724000D01*
X97663000Y-75184000D02*
X100203000Y-77724000D01*
X116713000Y-75184000D02*
X117411500Y-74485500D01*
X97663000Y-75184000D02*
X116713000Y-75184000D01*
%TO.N,IN5+*%
X57785000Y-104965500D02*
X57785000Y-104851200D01*
X58432700Y-104203500D02*
X73799700Y-104203500D01*
X57785000Y-104851200D02*
X58432700Y-104203500D01*
%TO.N,IN6+*%
X57785000Y-94805500D02*
X57823100Y-94805500D01*
X57823100Y-94805500D02*
X58585100Y-94043500D01*
X58585100Y-94043500D02*
X73875900Y-94043500D01*
%TO.N,IN7+*%
X57785000Y-84645500D02*
X57785000Y-84582000D01*
X57785000Y-84582000D02*
X58483500Y-83883500D01*
X58483500Y-83883500D02*
X73672700Y-83883500D01*
%TO.N,IN8+*%
X73723500Y-73787000D02*
X73723500Y-74295000D01*
X58483500Y-73787000D02*
X57785000Y-74485500D01*
X73723500Y-73787000D02*
X58483500Y-73787000D01*
%TO.N,IN1+*%
X57785000Y-145605500D02*
X58077100Y-145605500D01*
X58839100Y-144843500D02*
X73825100Y-144843500D01*
X58077100Y-145605500D02*
X58839100Y-144843500D01*
%TO.N,IN2+*%
X57785000Y-135445500D02*
X57873900Y-135445500D01*
X57873900Y-135445500D02*
X58635900Y-134683500D01*
X58635900Y-134683500D02*
X73748900Y-134683500D01*
%TO.N,IN3+*%
X57785000Y-125285500D02*
X57785000Y-124993400D01*
X58254900Y-124523500D02*
X73825100Y-124523500D01*
X57785000Y-124993400D02*
X58254900Y-124523500D01*
%TO.N,IN4+*%
X57785000Y-115125500D02*
X57975500Y-115125500D01*
X58737500Y-114363500D02*
X73698100Y-114363500D01*
X57975500Y-115125500D02*
X58737500Y-114363500D01*
%TD*%
M02*
