%TF.GenerationSoftware,KiCad,Pcbnew,(5.1.7)-1*%
%TF.CreationDate,2020-10-26T19:11:08+02:00*%
%TF.ProjectId,Opto-Board,4f70746f-2d42-46f6-9172-642e6b696361,rev?*%
%TF.SameCoordinates,Original*%
%TF.FileFunction,Copper,L1,Top*%
%TF.FilePolarity,Positive*%
%FSLAX46Y46*%
G04 Gerber Fmt 4.6, Leading zero omitted, Abs format (unit mm)*
G04 Created by KiCad (PCBNEW (5.1.7)-1) date 2020-10-26 19:11:08*
%MOMM*%
%LPD*%
G01*
G04 APERTURE LIST*
%TA.AperFunction,ComponentPad*%
%ADD10C,1.800000*%
%TD*%
%TA.AperFunction,ComponentPad*%
%ADD11R,1.800000X1.800000*%
%TD*%
%TA.AperFunction,ComponentPad*%
%ADD12O,1.600000X1.600000*%
%TD*%
%TA.AperFunction,ComponentPad*%
%ADD13R,1.600000X1.600000*%
%TD*%
%TA.AperFunction,ComponentPad*%
%ADD14R,2.600000X2.600000*%
%TD*%
%TA.AperFunction,ComponentPad*%
%ADD15C,2.600000*%
%TD*%
%TA.AperFunction,ViaPad*%
%ADD16C,4.500000*%
%TD*%
%TA.AperFunction,ViaPad*%
%ADD17C,2.000000*%
%TD*%
%TA.AperFunction,Conductor*%
%ADD18C,1.000000*%
%TD*%
G04 APERTURE END LIST*
D10*
%TO.P,D1,2*%
%TO.N,Net-(D1-Pad2)*%
X115316000Y-138684000D03*
D11*
%TO.P,D1,1*%
%TO.N,GND2*%
X112776000Y-138684000D03*
%TD*%
%TO.P,D2,1*%
%TO.N,IN1-*%
X75057000Y-148844000D03*
D10*
%TO.P,D2,2*%
%TO.N,Net-(D2-Pad2)*%
X72517000Y-148844000D03*
%TD*%
%TO.P,D3,2*%
%TO.N,Net-(D3-Pad2)*%
X72517000Y-108204000D03*
D11*
%TO.P,D3,1*%
%TO.N,IN5-*%
X75057000Y-108204000D03*
%TD*%
%TO.P,D4,1*%
%TO.N,OUT1*%
X100393500Y-148844000D03*
D10*
%TO.P,D4,2*%
%TO.N,Net-(D4-Pad2)*%
X102933500Y-148844000D03*
%TD*%
D11*
%TO.P,D5,1*%
%TO.N,OUT5*%
X100393500Y-108204000D03*
D10*
%TO.P,D5,2*%
%TO.N,Net-(D5-Pad2)*%
X102933500Y-108204000D03*
%TD*%
%TO.P,D6,2*%
%TO.N,Net-(D6-Pad2)*%
X72517000Y-138684000D03*
D11*
%TO.P,D6,1*%
%TO.N,IN2-*%
X75057000Y-138684000D03*
%TD*%
%TO.P,D7,1*%
%TO.N,IN6-*%
X75057000Y-98044000D03*
D10*
%TO.P,D7,2*%
%TO.N,Net-(D7-Pad2)*%
X72517000Y-98044000D03*
%TD*%
%TO.P,D8,2*%
%TO.N,Net-(D8-Pad2)*%
X102933500Y-138684000D03*
D11*
%TO.P,D8,1*%
%TO.N,OUT2*%
X100393500Y-138684000D03*
%TD*%
%TO.P,D9,1*%
%TO.N,OUT6*%
X100393500Y-98044000D03*
D10*
%TO.P,D9,2*%
%TO.N,Net-(D9-Pad2)*%
X102933500Y-98044000D03*
%TD*%
D11*
%TO.P,D10,1*%
%TO.N,IN3-*%
X75057000Y-128524000D03*
D10*
%TO.P,D10,2*%
%TO.N,Net-(D10-Pad2)*%
X72517000Y-128524000D03*
%TD*%
D11*
%TO.P,D11,1*%
%TO.N,IN7-*%
X75057000Y-87884000D03*
D10*
%TO.P,D11,2*%
%TO.N,Net-(D11-Pad2)*%
X72517000Y-87884000D03*
%TD*%
%TO.P,D12,2*%
%TO.N,Net-(D12-Pad2)*%
X102933500Y-128524000D03*
D11*
%TO.P,D12,1*%
%TO.N,OUT3*%
X100393500Y-128524000D03*
%TD*%
%TO.P,D13,1*%
%TO.N,OUT7*%
X100393500Y-87884000D03*
D10*
%TO.P,D13,2*%
%TO.N,Net-(D13-Pad2)*%
X102933500Y-87884000D03*
%TD*%
D11*
%TO.P,D14,1*%
%TO.N,IN4-*%
X75057000Y-118364000D03*
D10*
%TO.P,D14,2*%
%TO.N,Net-(D14-Pad2)*%
X72517000Y-118364000D03*
%TD*%
%TO.P,D15,2*%
%TO.N,Net-(D15-Pad2)*%
X72517000Y-77724000D03*
D11*
%TO.P,D15,1*%
%TO.N,IN8-*%
X75057000Y-77724000D03*
%TD*%
D10*
%TO.P,D16,2*%
%TO.N,Net-(D16-Pad2)*%
X102933500Y-118364000D03*
D11*
%TO.P,D16,1*%
%TO.N,OUT4*%
X100393500Y-118364000D03*
%TD*%
D10*
%TO.P,D17,2*%
%TO.N,Net-(D17-Pad2)*%
X102933500Y-77724000D03*
D11*
%TO.P,D17,1*%
%TO.N,OUT8*%
X100393500Y-77724000D03*
%TD*%
%TO.P,R1,1*%
%TO.N,Net-(D1-Pad2)*%
%TA.AperFunction,SMDPad,CuDef*%
G36*
G01*
X116234900Y-144409000D02*
X116234900Y-145659000D01*
G75*
G02*
X115984900Y-145909000I-250000J0D01*
G01*
X115059900Y-145909000D01*
G75*
G02*
X114809900Y-145659000I0J250000D01*
G01*
X114809900Y-144409000D01*
G75*
G02*
X115059900Y-144159000I250000J0D01*
G01*
X115984900Y-144159000D01*
G75*
G02*
X116234900Y-144409000I0J-250000D01*
G01*
G37*
%TD.AperFunction*%
%TO.P,R1,2*%
%TO.N,VCC*%
%TA.AperFunction,SMDPad,CuDef*%
G36*
G01*
X113259900Y-144409000D02*
X113259900Y-145659000D01*
G75*
G02*
X113009900Y-145909000I-250000J0D01*
G01*
X112084900Y-145909000D01*
G75*
G02*
X111834900Y-145659000I0J250000D01*
G01*
X111834900Y-144409000D01*
G75*
G02*
X112084900Y-144159000I250000J0D01*
G01*
X113009900Y-144159000D01*
G75*
G02*
X113259900Y-144409000I0J-250000D01*
G01*
G37*
%TD.AperFunction*%
%TD*%
%TO.P,R2,2*%
%TO.N,IN1+*%
%TA.AperFunction,SMDPad,CuDef*%
G36*
G01*
X70525000Y-145468500D02*
X70525000Y-144218500D01*
G75*
G02*
X70775000Y-143968500I250000J0D01*
G01*
X71700000Y-143968500D01*
G75*
G02*
X71950000Y-144218500I0J-250000D01*
G01*
X71950000Y-145468500D01*
G75*
G02*
X71700000Y-145718500I-250000J0D01*
G01*
X70775000Y-145718500D01*
G75*
G02*
X70525000Y-145468500I0J250000D01*
G01*
G37*
%TD.AperFunction*%
%TO.P,R2,1*%
%TO.N,Net-(D2-Pad2)*%
%TA.AperFunction,SMDPad,CuDef*%
G36*
G01*
X67550000Y-145468500D02*
X67550000Y-144218500D01*
G75*
G02*
X67800000Y-143968500I250000J0D01*
G01*
X68725000Y-143968500D01*
G75*
G02*
X68975000Y-144218500I0J-250000D01*
G01*
X68975000Y-145468500D01*
G75*
G02*
X68725000Y-145718500I-250000J0D01*
G01*
X67800000Y-145718500D01*
G75*
G02*
X67550000Y-145468500I0J250000D01*
G01*
G37*
%TD.AperFunction*%
%TD*%
%TO.P,R3,2*%
%TO.N,IN5+*%
%TA.AperFunction,SMDPad,CuDef*%
G36*
G01*
X70525000Y-104828500D02*
X70525000Y-103578500D01*
G75*
G02*
X70775000Y-103328500I250000J0D01*
G01*
X71700000Y-103328500D01*
G75*
G02*
X71950000Y-103578500I0J-250000D01*
G01*
X71950000Y-104828500D01*
G75*
G02*
X71700000Y-105078500I-250000J0D01*
G01*
X70775000Y-105078500D01*
G75*
G02*
X70525000Y-104828500I0J250000D01*
G01*
G37*
%TD.AperFunction*%
%TO.P,R3,1*%
%TO.N,Net-(D3-Pad2)*%
%TA.AperFunction,SMDPad,CuDef*%
G36*
G01*
X67550000Y-104828500D02*
X67550000Y-103578500D01*
G75*
G02*
X67800000Y-103328500I250000J0D01*
G01*
X68725000Y-103328500D01*
G75*
G02*
X68975000Y-103578500I0J-250000D01*
G01*
X68975000Y-104828500D01*
G75*
G02*
X68725000Y-105078500I-250000J0D01*
G01*
X67800000Y-105078500D01*
G75*
G02*
X67550000Y-104828500I0J250000D01*
G01*
G37*
%TD.AperFunction*%
%TD*%
%TO.P,R4,2*%
%TO.N,IN1+*%
%TA.AperFunction,SMDPad,CuDef*%
G36*
G01*
X77112500Y-144218500D02*
X77112500Y-145468500D01*
G75*
G02*
X76862500Y-145718500I-250000J0D01*
G01*
X75937500Y-145718500D01*
G75*
G02*
X75687500Y-145468500I0J250000D01*
G01*
X75687500Y-144218500D01*
G75*
G02*
X75937500Y-143968500I250000J0D01*
G01*
X76862500Y-143968500D01*
G75*
G02*
X77112500Y-144218500I0J-250000D01*
G01*
G37*
%TD.AperFunction*%
%TO.P,R4,1*%
%TO.N,Net-(R4-Pad1)*%
%TA.AperFunction,SMDPad,CuDef*%
G36*
G01*
X80087500Y-144218500D02*
X80087500Y-145468500D01*
G75*
G02*
X79837500Y-145718500I-250000J0D01*
G01*
X78912500Y-145718500D01*
G75*
G02*
X78662500Y-145468500I0J250000D01*
G01*
X78662500Y-144218500D01*
G75*
G02*
X78912500Y-143968500I250000J0D01*
G01*
X79837500Y-143968500D01*
G75*
G02*
X80087500Y-144218500I0J-250000D01*
G01*
G37*
%TD.AperFunction*%
%TD*%
%TO.P,R5,1*%
%TO.N,Net-(R5-Pad1)*%
%TA.AperFunction,SMDPad,CuDef*%
G36*
G01*
X80087500Y-103578500D02*
X80087500Y-104828500D01*
G75*
G02*
X79837500Y-105078500I-250000J0D01*
G01*
X78912500Y-105078500D01*
G75*
G02*
X78662500Y-104828500I0J250000D01*
G01*
X78662500Y-103578500D01*
G75*
G02*
X78912500Y-103328500I250000J0D01*
G01*
X79837500Y-103328500D01*
G75*
G02*
X80087500Y-103578500I0J-250000D01*
G01*
G37*
%TD.AperFunction*%
%TO.P,R5,2*%
%TO.N,IN5+*%
%TA.AperFunction,SMDPad,CuDef*%
G36*
G01*
X77112500Y-103578500D02*
X77112500Y-104828500D01*
G75*
G02*
X76862500Y-105078500I-250000J0D01*
G01*
X75937500Y-105078500D01*
G75*
G02*
X75687500Y-104828500I0J250000D01*
G01*
X75687500Y-103578500D01*
G75*
G02*
X75937500Y-103328500I250000J0D01*
G01*
X76862500Y-103328500D01*
G75*
G02*
X77112500Y-103578500I0J-250000D01*
G01*
G37*
%TD.AperFunction*%
%TD*%
%TO.P,R6,2*%
%TO.N,VCC*%
%TA.AperFunction,SMDPad,CuDef*%
G36*
G01*
X96978500Y-144409000D02*
X96978500Y-145659000D01*
G75*
G02*
X96728500Y-145909000I-250000J0D01*
G01*
X95803500Y-145909000D01*
G75*
G02*
X95553500Y-145659000I0J250000D01*
G01*
X95553500Y-144409000D01*
G75*
G02*
X95803500Y-144159000I250000J0D01*
G01*
X96728500Y-144159000D01*
G75*
G02*
X96978500Y-144409000I0J-250000D01*
G01*
G37*
%TD.AperFunction*%
%TO.P,R6,1*%
%TO.N,OUT1*%
%TA.AperFunction,SMDPad,CuDef*%
G36*
G01*
X99953500Y-144409000D02*
X99953500Y-145659000D01*
G75*
G02*
X99703500Y-145909000I-250000J0D01*
G01*
X98778500Y-145909000D01*
G75*
G02*
X98528500Y-145659000I0J250000D01*
G01*
X98528500Y-144409000D01*
G75*
G02*
X98778500Y-144159000I250000J0D01*
G01*
X99703500Y-144159000D01*
G75*
G02*
X99953500Y-144409000I0J-250000D01*
G01*
G37*
%TD.AperFunction*%
%TD*%
%TO.P,R7,1*%
%TO.N,OUT5*%
%TA.AperFunction,SMDPad,CuDef*%
G36*
G01*
X99953500Y-103769000D02*
X99953500Y-105019000D01*
G75*
G02*
X99703500Y-105269000I-250000J0D01*
G01*
X98778500Y-105269000D01*
G75*
G02*
X98528500Y-105019000I0J250000D01*
G01*
X98528500Y-103769000D01*
G75*
G02*
X98778500Y-103519000I250000J0D01*
G01*
X99703500Y-103519000D01*
G75*
G02*
X99953500Y-103769000I0J-250000D01*
G01*
G37*
%TD.AperFunction*%
%TO.P,R7,2*%
%TO.N,VCC*%
%TA.AperFunction,SMDPad,CuDef*%
G36*
G01*
X96978500Y-103769000D02*
X96978500Y-105019000D01*
G75*
G02*
X96728500Y-105269000I-250000J0D01*
G01*
X95803500Y-105269000D01*
G75*
G02*
X95553500Y-105019000I0J250000D01*
G01*
X95553500Y-103769000D01*
G75*
G02*
X95803500Y-103519000I250000J0D01*
G01*
X96728500Y-103519000D01*
G75*
G02*
X96978500Y-103769000I0J-250000D01*
G01*
G37*
%TD.AperFunction*%
%TD*%
%TO.P,R8,2*%
%TO.N,VCC*%
%TA.AperFunction,SMDPad,CuDef*%
G36*
G01*
X106348500Y-145659000D02*
X106348500Y-144409000D01*
G75*
G02*
X106598500Y-144159000I250000J0D01*
G01*
X107523500Y-144159000D01*
G75*
G02*
X107773500Y-144409000I0J-250000D01*
G01*
X107773500Y-145659000D01*
G75*
G02*
X107523500Y-145909000I-250000J0D01*
G01*
X106598500Y-145909000D01*
G75*
G02*
X106348500Y-145659000I0J250000D01*
G01*
G37*
%TD.AperFunction*%
%TO.P,R8,1*%
%TO.N,Net-(D4-Pad2)*%
%TA.AperFunction,SMDPad,CuDef*%
G36*
G01*
X103373500Y-145659000D02*
X103373500Y-144409000D01*
G75*
G02*
X103623500Y-144159000I250000J0D01*
G01*
X104548500Y-144159000D01*
G75*
G02*
X104798500Y-144409000I0J-250000D01*
G01*
X104798500Y-145659000D01*
G75*
G02*
X104548500Y-145909000I-250000J0D01*
G01*
X103623500Y-145909000D01*
G75*
G02*
X103373500Y-145659000I0J250000D01*
G01*
G37*
%TD.AperFunction*%
%TD*%
%TO.P,R9,2*%
%TO.N,VCC*%
%TA.AperFunction,SMDPad,CuDef*%
G36*
G01*
X106348500Y-105019000D02*
X106348500Y-103769000D01*
G75*
G02*
X106598500Y-103519000I250000J0D01*
G01*
X107523500Y-103519000D01*
G75*
G02*
X107773500Y-103769000I0J-250000D01*
G01*
X107773500Y-105019000D01*
G75*
G02*
X107523500Y-105269000I-250000J0D01*
G01*
X106598500Y-105269000D01*
G75*
G02*
X106348500Y-105019000I0J250000D01*
G01*
G37*
%TD.AperFunction*%
%TO.P,R9,1*%
%TO.N,Net-(D5-Pad2)*%
%TA.AperFunction,SMDPad,CuDef*%
G36*
G01*
X103373500Y-105019000D02*
X103373500Y-103769000D01*
G75*
G02*
X103623500Y-103519000I250000J0D01*
G01*
X104548500Y-103519000D01*
G75*
G02*
X104798500Y-103769000I0J-250000D01*
G01*
X104798500Y-105019000D01*
G75*
G02*
X104548500Y-105269000I-250000J0D01*
G01*
X103623500Y-105269000D01*
G75*
G02*
X103373500Y-105019000I0J250000D01*
G01*
G37*
%TD.AperFunction*%
%TD*%
%TO.P,R10,1*%
%TO.N,Net-(D6-Pad2)*%
%TA.AperFunction,SMDPad,CuDef*%
G36*
G01*
X67550000Y-135308500D02*
X67550000Y-134058500D01*
G75*
G02*
X67800000Y-133808500I250000J0D01*
G01*
X68725000Y-133808500D01*
G75*
G02*
X68975000Y-134058500I0J-250000D01*
G01*
X68975000Y-135308500D01*
G75*
G02*
X68725000Y-135558500I-250000J0D01*
G01*
X67800000Y-135558500D01*
G75*
G02*
X67550000Y-135308500I0J250000D01*
G01*
G37*
%TD.AperFunction*%
%TO.P,R10,2*%
%TO.N,IN2+*%
%TA.AperFunction,SMDPad,CuDef*%
G36*
G01*
X70525000Y-135308500D02*
X70525000Y-134058500D01*
G75*
G02*
X70775000Y-133808500I250000J0D01*
G01*
X71700000Y-133808500D01*
G75*
G02*
X71950000Y-134058500I0J-250000D01*
G01*
X71950000Y-135308500D01*
G75*
G02*
X71700000Y-135558500I-250000J0D01*
G01*
X70775000Y-135558500D01*
G75*
G02*
X70525000Y-135308500I0J250000D01*
G01*
G37*
%TD.AperFunction*%
%TD*%
%TO.P,R11,2*%
%TO.N,IN6+*%
%TA.AperFunction,SMDPad,CuDef*%
G36*
G01*
X70525000Y-94668500D02*
X70525000Y-93418500D01*
G75*
G02*
X70775000Y-93168500I250000J0D01*
G01*
X71700000Y-93168500D01*
G75*
G02*
X71950000Y-93418500I0J-250000D01*
G01*
X71950000Y-94668500D01*
G75*
G02*
X71700000Y-94918500I-250000J0D01*
G01*
X70775000Y-94918500D01*
G75*
G02*
X70525000Y-94668500I0J250000D01*
G01*
G37*
%TD.AperFunction*%
%TO.P,R11,1*%
%TO.N,Net-(D7-Pad2)*%
%TA.AperFunction,SMDPad,CuDef*%
G36*
G01*
X67550000Y-94668500D02*
X67550000Y-93418500D01*
G75*
G02*
X67800000Y-93168500I250000J0D01*
G01*
X68725000Y-93168500D01*
G75*
G02*
X68975000Y-93418500I0J-250000D01*
G01*
X68975000Y-94668500D01*
G75*
G02*
X68725000Y-94918500I-250000J0D01*
G01*
X67800000Y-94918500D01*
G75*
G02*
X67550000Y-94668500I0J250000D01*
G01*
G37*
%TD.AperFunction*%
%TD*%
%TO.P,R12,2*%
%TO.N,IN2+*%
%TA.AperFunction,SMDPad,CuDef*%
G36*
G01*
X77049000Y-134058500D02*
X77049000Y-135308500D01*
G75*
G02*
X76799000Y-135558500I-250000J0D01*
G01*
X75874000Y-135558500D01*
G75*
G02*
X75624000Y-135308500I0J250000D01*
G01*
X75624000Y-134058500D01*
G75*
G02*
X75874000Y-133808500I250000J0D01*
G01*
X76799000Y-133808500D01*
G75*
G02*
X77049000Y-134058500I0J-250000D01*
G01*
G37*
%TD.AperFunction*%
%TO.P,R12,1*%
%TO.N,Net-(R12-Pad1)*%
%TA.AperFunction,SMDPad,CuDef*%
G36*
G01*
X80024000Y-134058500D02*
X80024000Y-135308500D01*
G75*
G02*
X79774000Y-135558500I-250000J0D01*
G01*
X78849000Y-135558500D01*
G75*
G02*
X78599000Y-135308500I0J250000D01*
G01*
X78599000Y-134058500D01*
G75*
G02*
X78849000Y-133808500I250000J0D01*
G01*
X79774000Y-133808500D01*
G75*
G02*
X80024000Y-134058500I0J-250000D01*
G01*
G37*
%TD.AperFunction*%
%TD*%
%TO.P,R13,1*%
%TO.N,Net-(R13-Pad1)*%
%TA.AperFunction,SMDPad,CuDef*%
G36*
G01*
X80087500Y-93418500D02*
X80087500Y-94668500D01*
G75*
G02*
X79837500Y-94918500I-250000J0D01*
G01*
X78912500Y-94918500D01*
G75*
G02*
X78662500Y-94668500I0J250000D01*
G01*
X78662500Y-93418500D01*
G75*
G02*
X78912500Y-93168500I250000J0D01*
G01*
X79837500Y-93168500D01*
G75*
G02*
X80087500Y-93418500I0J-250000D01*
G01*
G37*
%TD.AperFunction*%
%TO.P,R13,2*%
%TO.N,IN6+*%
%TA.AperFunction,SMDPad,CuDef*%
G36*
G01*
X77112500Y-93418500D02*
X77112500Y-94668500D01*
G75*
G02*
X76862500Y-94918500I-250000J0D01*
G01*
X75937500Y-94918500D01*
G75*
G02*
X75687500Y-94668500I0J250000D01*
G01*
X75687500Y-93418500D01*
G75*
G02*
X75937500Y-93168500I250000J0D01*
G01*
X76862500Y-93168500D01*
G75*
G02*
X77112500Y-93418500I0J-250000D01*
G01*
G37*
%TD.AperFunction*%
%TD*%
%TO.P,R14,1*%
%TO.N,OUT2*%
%TA.AperFunction,SMDPad,CuDef*%
G36*
G01*
X99950300Y-134274400D02*
X99950300Y-135524400D01*
G75*
G02*
X99700300Y-135774400I-250000J0D01*
G01*
X98775300Y-135774400D01*
G75*
G02*
X98525300Y-135524400I0J250000D01*
G01*
X98525300Y-134274400D01*
G75*
G02*
X98775300Y-134024400I250000J0D01*
G01*
X99700300Y-134024400D01*
G75*
G02*
X99950300Y-134274400I0J-250000D01*
G01*
G37*
%TD.AperFunction*%
%TO.P,R14,2*%
%TO.N,VCC*%
%TA.AperFunction,SMDPad,CuDef*%
G36*
G01*
X96975300Y-134274400D02*
X96975300Y-135524400D01*
G75*
G02*
X96725300Y-135774400I-250000J0D01*
G01*
X95800300Y-135774400D01*
G75*
G02*
X95550300Y-135524400I0J250000D01*
G01*
X95550300Y-134274400D01*
G75*
G02*
X95800300Y-134024400I250000J0D01*
G01*
X96725300Y-134024400D01*
G75*
G02*
X96975300Y-134274400I0J-250000D01*
G01*
G37*
%TD.AperFunction*%
%TD*%
%TO.P,R15,1*%
%TO.N,OUT6*%
%TA.AperFunction,SMDPad,CuDef*%
G36*
G01*
X99953500Y-93609000D02*
X99953500Y-94859000D01*
G75*
G02*
X99703500Y-95109000I-250000J0D01*
G01*
X98778500Y-95109000D01*
G75*
G02*
X98528500Y-94859000I0J250000D01*
G01*
X98528500Y-93609000D01*
G75*
G02*
X98778500Y-93359000I250000J0D01*
G01*
X99703500Y-93359000D01*
G75*
G02*
X99953500Y-93609000I0J-250000D01*
G01*
G37*
%TD.AperFunction*%
%TO.P,R15,2*%
%TO.N,VCC*%
%TA.AperFunction,SMDPad,CuDef*%
G36*
G01*
X96978500Y-93609000D02*
X96978500Y-94859000D01*
G75*
G02*
X96728500Y-95109000I-250000J0D01*
G01*
X95803500Y-95109000D01*
G75*
G02*
X95553500Y-94859000I0J250000D01*
G01*
X95553500Y-93609000D01*
G75*
G02*
X95803500Y-93359000I250000J0D01*
G01*
X96728500Y-93359000D01*
G75*
G02*
X96978500Y-93609000I0J-250000D01*
G01*
G37*
%TD.AperFunction*%
%TD*%
%TO.P,R16,2*%
%TO.N,VCC*%
%TA.AperFunction,SMDPad,CuDef*%
G36*
G01*
X106326300Y-135524400D02*
X106326300Y-134274400D01*
G75*
G02*
X106576300Y-134024400I250000J0D01*
G01*
X107501300Y-134024400D01*
G75*
G02*
X107751300Y-134274400I0J-250000D01*
G01*
X107751300Y-135524400D01*
G75*
G02*
X107501300Y-135774400I-250000J0D01*
G01*
X106576300Y-135774400D01*
G75*
G02*
X106326300Y-135524400I0J250000D01*
G01*
G37*
%TD.AperFunction*%
%TO.P,R16,1*%
%TO.N,Net-(D8-Pad2)*%
%TA.AperFunction,SMDPad,CuDef*%
G36*
G01*
X103351300Y-135524400D02*
X103351300Y-134274400D01*
G75*
G02*
X103601300Y-134024400I250000J0D01*
G01*
X104526300Y-134024400D01*
G75*
G02*
X104776300Y-134274400I0J-250000D01*
G01*
X104776300Y-135524400D01*
G75*
G02*
X104526300Y-135774400I-250000J0D01*
G01*
X103601300Y-135774400D01*
G75*
G02*
X103351300Y-135524400I0J250000D01*
G01*
G37*
%TD.AperFunction*%
%TD*%
%TO.P,R17,1*%
%TO.N,Net-(D9-Pad2)*%
%TA.AperFunction,SMDPad,CuDef*%
G36*
G01*
X103373500Y-94859000D02*
X103373500Y-93609000D01*
G75*
G02*
X103623500Y-93359000I250000J0D01*
G01*
X104548500Y-93359000D01*
G75*
G02*
X104798500Y-93609000I0J-250000D01*
G01*
X104798500Y-94859000D01*
G75*
G02*
X104548500Y-95109000I-250000J0D01*
G01*
X103623500Y-95109000D01*
G75*
G02*
X103373500Y-94859000I0J250000D01*
G01*
G37*
%TD.AperFunction*%
%TO.P,R17,2*%
%TO.N,VCC*%
%TA.AperFunction,SMDPad,CuDef*%
G36*
G01*
X106348500Y-94859000D02*
X106348500Y-93609000D01*
G75*
G02*
X106598500Y-93359000I250000J0D01*
G01*
X107523500Y-93359000D01*
G75*
G02*
X107773500Y-93609000I0J-250000D01*
G01*
X107773500Y-94859000D01*
G75*
G02*
X107523500Y-95109000I-250000J0D01*
G01*
X106598500Y-95109000D01*
G75*
G02*
X106348500Y-94859000I0J250000D01*
G01*
G37*
%TD.AperFunction*%
%TD*%
%TO.P,R18,1*%
%TO.N,Net-(D10-Pad2)*%
%TA.AperFunction,SMDPad,CuDef*%
G36*
G01*
X67550000Y-125148500D02*
X67550000Y-123898500D01*
G75*
G02*
X67800000Y-123648500I250000J0D01*
G01*
X68725000Y-123648500D01*
G75*
G02*
X68975000Y-123898500I0J-250000D01*
G01*
X68975000Y-125148500D01*
G75*
G02*
X68725000Y-125398500I-250000J0D01*
G01*
X67800000Y-125398500D01*
G75*
G02*
X67550000Y-125148500I0J250000D01*
G01*
G37*
%TD.AperFunction*%
%TO.P,R18,2*%
%TO.N,IN3+*%
%TA.AperFunction,SMDPad,CuDef*%
G36*
G01*
X70525000Y-125148500D02*
X70525000Y-123898500D01*
G75*
G02*
X70775000Y-123648500I250000J0D01*
G01*
X71700000Y-123648500D01*
G75*
G02*
X71950000Y-123898500I0J-250000D01*
G01*
X71950000Y-125148500D01*
G75*
G02*
X71700000Y-125398500I-250000J0D01*
G01*
X70775000Y-125398500D01*
G75*
G02*
X70525000Y-125148500I0J250000D01*
G01*
G37*
%TD.AperFunction*%
%TD*%
%TO.P,R19,2*%
%TO.N,IN7+*%
%TA.AperFunction,SMDPad,CuDef*%
G36*
G01*
X70525000Y-84508500D02*
X70525000Y-83258500D01*
G75*
G02*
X70775000Y-83008500I250000J0D01*
G01*
X71700000Y-83008500D01*
G75*
G02*
X71950000Y-83258500I0J-250000D01*
G01*
X71950000Y-84508500D01*
G75*
G02*
X71700000Y-84758500I-250000J0D01*
G01*
X70775000Y-84758500D01*
G75*
G02*
X70525000Y-84508500I0J250000D01*
G01*
G37*
%TD.AperFunction*%
%TO.P,R19,1*%
%TO.N,Net-(D11-Pad2)*%
%TA.AperFunction,SMDPad,CuDef*%
G36*
G01*
X67550000Y-84508500D02*
X67550000Y-83258500D01*
G75*
G02*
X67800000Y-83008500I250000J0D01*
G01*
X68725000Y-83008500D01*
G75*
G02*
X68975000Y-83258500I0J-250000D01*
G01*
X68975000Y-84508500D01*
G75*
G02*
X68725000Y-84758500I-250000J0D01*
G01*
X67800000Y-84758500D01*
G75*
G02*
X67550000Y-84508500I0J250000D01*
G01*
G37*
%TD.AperFunction*%
%TD*%
%TO.P,R20,1*%
%TO.N,Net-(R20-Pad1)*%
%TA.AperFunction,SMDPad,CuDef*%
G36*
G01*
X80087500Y-123898500D02*
X80087500Y-125148500D01*
G75*
G02*
X79837500Y-125398500I-250000J0D01*
G01*
X78912500Y-125398500D01*
G75*
G02*
X78662500Y-125148500I0J250000D01*
G01*
X78662500Y-123898500D01*
G75*
G02*
X78912500Y-123648500I250000J0D01*
G01*
X79837500Y-123648500D01*
G75*
G02*
X80087500Y-123898500I0J-250000D01*
G01*
G37*
%TD.AperFunction*%
%TO.P,R20,2*%
%TO.N,IN3+*%
%TA.AperFunction,SMDPad,CuDef*%
G36*
G01*
X77112500Y-123898500D02*
X77112500Y-125148500D01*
G75*
G02*
X76862500Y-125398500I-250000J0D01*
G01*
X75937500Y-125398500D01*
G75*
G02*
X75687500Y-125148500I0J250000D01*
G01*
X75687500Y-123898500D01*
G75*
G02*
X75937500Y-123648500I250000J0D01*
G01*
X76862500Y-123648500D01*
G75*
G02*
X77112500Y-123898500I0J-250000D01*
G01*
G37*
%TD.AperFunction*%
%TD*%
%TO.P,R21,1*%
%TO.N,Net-(R21-Pad1)*%
%TA.AperFunction,SMDPad,CuDef*%
G36*
G01*
X80087500Y-83258500D02*
X80087500Y-84508500D01*
G75*
G02*
X79837500Y-84758500I-250000J0D01*
G01*
X78912500Y-84758500D01*
G75*
G02*
X78662500Y-84508500I0J250000D01*
G01*
X78662500Y-83258500D01*
G75*
G02*
X78912500Y-83008500I250000J0D01*
G01*
X79837500Y-83008500D01*
G75*
G02*
X80087500Y-83258500I0J-250000D01*
G01*
G37*
%TD.AperFunction*%
%TO.P,R21,2*%
%TO.N,IN7+*%
%TA.AperFunction,SMDPad,CuDef*%
G36*
G01*
X77112500Y-83258500D02*
X77112500Y-84508500D01*
G75*
G02*
X76862500Y-84758500I-250000J0D01*
G01*
X75937500Y-84758500D01*
G75*
G02*
X75687500Y-84508500I0J250000D01*
G01*
X75687500Y-83258500D01*
G75*
G02*
X75937500Y-83008500I250000J0D01*
G01*
X76862500Y-83008500D01*
G75*
G02*
X77112500Y-83258500I0J-250000D01*
G01*
G37*
%TD.AperFunction*%
%TD*%
%TO.P,R22,1*%
%TO.N,OUT3*%
%TA.AperFunction,SMDPad,CuDef*%
G36*
G01*
X99953500Y-124089000D02*
X99953500Y-125339000D01*
G75*
G02*
X99703500Y-125589000I-250000J0D01*
G01*
X98778500Y-125589000D01*
G75*
G02*
X98528500Y-125339000I0J250000D01*
G01*
X98528500Y-124089000D01*
G75*
G02*
X98778500Y-123839000I250000J0D01*
G01*
X99703500Y-123839000D01*
G75*
G02*
X99953500Y-124089000I0J-250000D01*
G01*
G37*
%TD.AperFunction*%
%TO.P,R22,2*%
%TO.N,VCC*%
%TA.AperFunction,SMDPad,CuDef*%
G36*
G01*
X96978500Y-124089000D02*
X96978500Y-125339000D01*
G75*
G02*
X96728500Y-125589000I-250000J0D01*
G01*
X95803500Y-125589000D01*
G75*
G02*
X95553500Y-125339000I0J250000D01*
G01*
X95553500Y-124089000D01*
G75*
G02*
X95803500Y-123839000I250000J0D01*
G01*
X96728500Y-123839000D01*
G75*
G02*
X96978500Y-124089000I0J-250000D01*
G01*
G37*
%TD.AperFunction*%
%TD*%
%TO.P,R23,1*%
%TO.N,OUT7*%
%TA.AperFunction,SMDPad,CuDef*%
G36*
G01*
X99953500Y-83449000D02*
X99953500Y-84699000D01*
G75*
G02*
X99703500Y-84949000I-250000J0D01*
G01*
X98778500Y-84949000D01*
G75*
G02*
X98528500Y-84699000I0J250000D01*
G01*
X98528500Y-83449000D01*
G75*
G02*
X98778500Y-83199000I250000J0D01*
G01*
X99703500Y-83199000D01*
G75*
G02*
X99953500Y-83449000I0J-250000D01*
G01*
G37*
%TD.AperFunction*%
%TO.P,R23,2*%
%TO.N,VCC*%
%TA.AperFunction,SMDPad,CuDef*%
G36*
G01*
X96978500Y-83449000D02*
X96978500Y-84699000D01*
G75*
G02*
X96728500Y-84949000I-250000J0D01*
G01*
X95803500Y-84949000D01*
G75*
G02*
X95553500Y-84699000I0J250000D01*
G01*
X95553500Y-83449000D01*
G75*
G02*
X95803500Y-83199000I250000J0D01*
G01*
X96728500Y-83199000D01*
G75*
G02*
X96978500Y-83449000I0J-250000D01*
G01*
G37*
%TD.AperFunction*%
%TD*%
%TO.P,R24,2*%
%TO.N,VCC*%
%TA.AperFunction,SMDPad,CuDef*%
G36*
G01*
X106348500Y-125339000D02*
X106348500Y-124089000D01*
G75*
G02*
X106598500Y-123839000I250000J0D01*
G01*
X107523500Y-123839000D01*
G75*
G02*
X107773500Y-124089000I0J-250000D01*
G01*
X107773500Y-125339000D01*
G75*
G02*
X107523500Y-125589000I-250000J0D01*
G01*
X106598500Y-125589000D01*
G75*
G02*
X106348500Y-125339000I0J250000D01*
G01*
G37*
%TD.AperFunction*%
%TO.P,R24,1*%
%TO.N,Net-(D12-Pad2)*%
%TA.AperFunction,SMDPad,CuDef*%
G36*
G01*
X103373500Y-125339000D02*
X103373500Y-124089000D01*
G75*
G02*
X103623500Y-123839000I250000J0D01*
G01*
X104548500Y-123839000D01*
G75*
G02*
X104798500Y-124089000I0J-250000D01*
G01*
X104798500Y-125339000D01*
G75*
G02*
X104548500Y-125589000I-250000J0D01*
G01*
X103623500Y-125589000D01*
G75*
G02*
X103373500Y-125339000I0J250000D01*
G01*
G37*
%TD.AperFunction*%
%TD*%
%TO.P,R25,2*%
%TO.N,VCC*%
%TA.AperFunction,SMDPad,CuDef*%
G36*
G01*
X106348500Y-84699000D02*
X106348500Y-83449000D01*
G75*
G02*
X106598500Y-83199000I250000J0D01*
G01*
X107523500Y-83199000D01*
G75*
G02*
X107773500Y-83449000I0J-250000D01*
G01*
X107773500Y-84699000D01*
G75*
G02*
X107523500Y-84949000I-250000J0D01*
G01*
X106598500Y-84949000D01*
G75*
G02*
X106348500Y-84699000I0J250000D01*
G01*
G37*
%TD.AperFunction*%
%TO.P,R25,1*%
%TO.N,Net-(D13-Pad2)*%
%TA.AperFunction,SMDPad,CuDef*%
G36*
G01*
X103373500Y-84699000D02*
X103373500Y-83449000D01*
G75*
G02*
X103623500Y-83199000I250000J0D01*
G01*
X104548500Y-83199000D01*
G75*
G02*
X104798500Y-83449000I0J-250000D01*
G01*
X104798500Y-84699000D01*
G75*
G02*
X104548500Y-84949000I-250000J0D01*
G01*
X103623500Y-84949000D01*
G75*
G02*
X103373500Y-84699000I0J250000D01*
G01*
G37*
%TD.AperFunction*%
%TD*%
%TO.P,R26,2*%
%TO.N,IN4+*%
%TA.AperFunction,SMDPad,CuDef*%
G36*
G01*
X70509100Y-115001200D02*
X70509100Y-113751200D01*
G75*
G02*
X70759100Y-113501200I250000J0D01*
G01*
X71684100Y-113501200D01*
G75*
G02*
X71934100Y-113751200I0J-250000D01*
G01*
X71934100Y-115001200D01*
G75*
G02*
X71684100Y-115251200I-250000J0D01*
G01*
X70759100Y-115251200D01*
G75*
G02*
X70509100Y-115001200I0J250000D01*
G01*
G37*
%TD.AperFunction*%
%TO.P,R26,1*%
%TO.N,Net-(D14-Pad2)*%
%TA.AperFunction,SMDPad,CuDef*%
G36*
G01*
X67534100Y-115001200D02*
X67534100Y-113751200D01*
G75*
G02*
X67784100Y-113501200I250000J0D01*
G01*
X68709100Y-113501200D01*
G75*
G02*
X68959100Y-113751200I0J-250000D01*
G01*
X68959100Y-115001200D01*
G75*
G02*
X68709100Y-115251200I-250000J0D01*
G01*
X67784100Y-115251200D01*
G75*
G02*
X67534100Y-115001200I0J250000D01*
G01*
G37*
%TD.AperFunction*%
%TD*%
%TO.P,R27,2*%
%TO.N,IN8+*%
%TA.AperFunction,SMDPad,CuDef*%
G36*
G01*
X70534500Y-74348500D02*
X70534500Y-73098500D01*
G75*
G02*
X70784500Y-72848500I250000J0D01*
G01*
X71709500Y-72848500D01*
G75*
G02*
X71959500Y-73098500I0J-250000D01*
G01*
X71959500Y-74348500D01*
G75*
G02*
X71709500Y-74598500I-250000J0D01*
G01*
X70784500Y-74598500D01*
G75*
G02*
X70534500Y-74348500I0J250000D01*
G01*
G37*
%TD.AperFunction*%
%TO.P,R27,1*%
%TO.N,Net-(D15-Pad2)*%
%TA.AperFunction,SMDPad,CuDef*%
G36*
G01*
X67559500Y-74348500D02*
X67559500Y-73098500D01*
G75*
G02*
X67809500Y-72848500I250000J0D01*
G01*
X68734500Y-72848500D01*
G75*
G02*
X68984500Y-73098500I0J-250000D01*
G01*
X68984500Y-74348500D01*
G75*
G02*
X68734500Y-74598500I-250000J0D01*
G01*
X67809500Y-74598500D01*
G75*
G02*
X67559500Y-74348500I0J250000D01*
G01*
G37*
%TD.AperFunction*%
%TD*%
%TO.P,R28,1*%
%TO.N,Net-(R28-Pad1)*%
%TA.AperFunction,SMDPad,CuDef*%
G36*
G01*
X79836700Y-113725800D02*
X79836700Y-114975800D01*
G75*
G02*
X79586700Y-115225800I-250000J0D01*
G01*
X78661700Y-115225800D01*
G75*
G02*
X78411700Y-114975800I0J250000D01*
G01*
X78411700Y-113725800D01*
G75*
G02*
X78661700Y-113475800I250000J0D01*
G01*
X79586700Y-113475800D01*
G75*
G02*
X79836700Y-113725800I0J-250000D01*
G01*
G37*
%TD.AperFunction*%
%TO.P,R28,2*%
%TO.N,IN4+*%
%TA.AperFunction,SMDPad,CuDef*%
G36*
G01*
X76861700Y-113725800D02*
X76861700Y-114975800D01*
G75*
G02*
X76611700Y-115225800I-250000J0D01*
G01*
X75686700Y-115225800D01*
G75*
G02*
X75436700Y-114975800I0J250000D01*
G01*
X75436700Y-113725800D01*
G75*
G02*
X75686700Y-113475800I250000J0D01*
G01*
X76611700Y-113475800D01*
G75*
G02*
X76861700Y-113725800I0J-250000D01*
G01*
G37*
%TD.AperFunction*%
%TD*%
%TO.P,R29,1*%
%TO.N,Net-(R29-Pad1)*%
%TA.AperFunction,SMDPad,CuDef*%
G36*
G01*
X80078000Y-73098500D02*
X80078000Y-74348500D01*
G75*
G02*
X79828000Y-74598500I-250000J0D01*
G01*
X78903000Y-74598500D01*
G75*
G02*
X78653000Y-74348500I0J250000D01*
G01*
X78653000Y-73098500D01*
G75*
G02*
X78903000Y-72848500I250000J0D01*
G01*
X79828000Y-72848500D01*
G75*
G02*
X80078000Y-73098500I0J-250000D01*
G01*
G37*
%TD.AperFunction*%
%TO.P,R29,2*%
%TO.N,IN8+*%
%TA.AperFunction,SMDPad,CuDef*%
G36*
G01*
X77103000Y-73098500D02*
X77103000Y-74348500D01*
G75*
G02*
X76853000Y-74598500I-250000J0D01*
G01*
X75928000Y-74598500D01*
G75*
G02*
X75678000Y-74348500I0J250000D01*
G01*
X75678000Y-73098500D01*
G75*
G02*
X75928000Y-72848500I250000J0D01*
G01*
X76853000Y-72848500D01*
G75*
G02*
X77103000Y-73098500I0J-250000D01*
G01*
G37*
%TD.AperFunction*%
%TD*%
%TO.P,R30,1*%
%TO.N,OUT4*%
%TA.AperFunction,SMDPad,CuDef*%
G36*
G01*
X99953500Y-113929000D02*
X99953500Y-115179000D01*
G75*
G02*
X99703500Y-115429000I-250000J0D01*
G01*
X98778500Y-115429000D01*
G75*
G02*
X98528500Y-115179000I0J250000D01*
G01*
X98528500Y-113929000D01*
G75*
G02*
X98778500Y-113679000I250000J0D01*
G01*
X99703500Y-113679000D01*
G75*
G02*
X99953500Y-113929000I0J-250000D01*
G01*
G37*
%TD.AperFunction*%
%TO.P,R30,2*%
%TO.N,VCC*%
%TA.AperFunction,SMDPad,CuDef*%
G36*
G01*
X96978500Y-113929000D02*
X96978500Y-115179000D01*
G75*
G02*
X96728500Y-115429000I-250000J0D01*
G01*
X95803500Y-115429000D01*
G75*
G02*
X95553500Y-115179000I0J250000D01*
G01*
X95553500Y-113929000D01*
G75*
G02*
X95803500Y-113679000I250000J0D01*
G01*
X96728500Y-113679000D01*
G75*
G02*
X96978500Y-113929000I0J-250000D01*
G01*
G37*
%TD.AperFunction*%
%TD*%
%TO.P,R31,1*%
%TO.N,OUT8*%
%TA.AperFunction,SMDPad,CuDef*%
G36*
G01*
X99963000Y-73289000D02*
X99963000Y-74539000D01*
G75*
G02*
X99713000Y-74789000I-250000J0D01*
G01*
X98788000Y-74789000D01*
G75*
G02*
X98538000Y-74539000I0J250000D01*
G01*
X98538000Y-73289000D01*
G75*
G02*
X98788000Y-73039000I250000J0D01*
G01*
X99713000Y-73039000D01*
G75*
G02*
X99963000Y-73289000I0J-250000D01*
G01*
G37*
%TD.AperFunction*%
%TO.P,R31,2*%
%TO.N,VCC*%
%TA.AperFunction,SMDPad,CuDef*%
G36*
G01*
X96988000Y-73289000D02*
X96988000Y-74539000D01*
G75*
G02*
X96738000Y-74789000I-250000J0D01*
G01*
X95813000Y-74789000D01*
G75*
G02*
X95563000Y-74539000I0J250000D01*
G01*
X95563000Y-73289000D01*
G75*
G02*
X95813000Y-73039000I250000J0D01*
G01*
X96738000Y-73039000D01*
G75*
G02*
X96988000Y-73289000I0J-250000D01*
G01*
G37*
%TD.AperFunction*%
%TD*%
%TO.P,R32,2*%
%TO.N,VCC*%
%TA.AperFunction,SMDPad,CuDef*%
G36*
G01*
X106348500Y-115179000D02*
X106348500Y-113929000D01*
G75*
G02*
X106598500Y-113679000I250000J0D01*
G01*
X107523500Y-113679000D01*
G75*
G02*
X107773500Y-113929000I0J-250000D01*
G01*
X107773500Y-115179000D01*
G75*
G02*
X107523500Y-115429000I-250000J0D01*
G01*
X106598500Y-115429000D01*
G75*
G02*
X106348500Y-115179000I0J250000D01*
G01*
G37*
%TD.AperFunction*%
%TO.P,R32,1*%
%TO.N,Net-(D16-Pad2)*%
%TA.AperFunction,SMDPad,CuDef*%
G36*
G01*
X103373500Y-115179000D02*
X103373500Y-113929000D01*
G75*
G02*
X103623500Y-113679000I250000J0D01*
G01*
X104548500Y-113679000D01*
G75*
G02*
X104798500Y-113929000I0J-250000D01*
G01*
X104798500Y-115179000D01*
G75*
G02*
X104548500Y-115429000I-250000J0D01*
G01*
X103623500Y-115429000D01*
G75*
G02*
X103373500Y-115179000I0J250000D01*
G01*
G37*
%TD.AperFunction*%
%TD*%
%TO.P,R33,2*%
%TO.N,VCC*%
%TA.AperFunction,SMDPad,CuDef*%
G36*
G01*
X106339000Y-74539000D02*
X106339000Y-73289000D01*
G75*
G02*
X106589000Y-73039000I250000J0D01*
G01*
X107514000Y-73039000D01*
G75*
G02*
X107764000Y-73289000I0J-250000D01*
G01*
X107764000Y-74539000D01*
G75*
G02*
X107514000Y-74789000I-250000J0D01*
G01*
X106589000Y-74789000D01*
G75*
G02*
X106339000Y-74539000I0J250000D01*
G01*
G37*
%TD.AperFunction*%
%TO.P,R33,1*%
%TO.N,Net-(D17-Pad2)*%
%TA.AperFunction,SMDPad,CuDef*%
G36*
G01*
X103364000Y-74539000D02*
X103364000Y-73289000D01*
G75*
G02*
X103614000Y-73039000I250000J0D01*
G01*
X104539000Y-73039000D01*
G75*
G02*
X104789000Y-73289000I0J-250000D01*
G01*
X104789000Y-74539000D01*
G75*
G02*
X104539000Y-74789000I-250000J0D01*
G01*
X103614000Y-74789000D01*
G75*
G02*
X103364000Y-74539000I0J250000D01*
G01*
G37*
%TD.AperFunction*%
%TD*%
D12*
%TO.P,U1,4*%
%TO.N,OUT1*%
X90995500Y-146304000D03*
%TO.P,U1,2*%
%TO.N,IN1-*%
X83375500Y-148844000D03*
%TO.P,U1,3*%
%TO.N,GND2*%
X90995500Y-148844000D03*
D13*
%TO.P,U1,1*%
%TO.N,Net-(R4-Pad1)*%
X83375500Y-146304000D03*
%TD*%
D12*
%TO.P,U2,4*%
%TO.N,OUT5*%
X90995500Y-105664000D03*
%TO.P,U2,2*%
%TO.N,IN5-*%
X83375500Y-108204000D03*
%TO.P,U2,3*%
%TO.N,GND2*%
X90995500Y-108204000D03*
D13*
%TO.P,U2,1*%
%TO.N,Net-(R5-Pad1)*%
X83375500Y-105664000D03*
%TD*%
%TO.P,U3,1*%
%TO.N,Net-(R12-Pad1)*%
X83375500Y-136144000D03*
D12*
%TO.P,U3,3*%
%TO.N,GND2*%
X90995500Y-138684000D03*
%TO.P,U3,2*%
%TO.N,IN2-*%
X83375500Y-138684000D03*
%TO.P,U3,4*%
%TO.N,OUT2*%
X90995500Y-136144000D03*
%TD*%
D13*
%TO.P,U4,1*%
%TO.N,Net-(R13-Pad1)*%
X83375500Y-95504000D03*
D12*
%TO.P,U4,3*%
%TO.N,GND2*%
X90995500Y-98044000D03*
%TO.P,U4,2*%
%TO.N,IN6-*%
X83375500Y-98044000D03*
%TO.P,U4,4*%
%TO.N,OUT6*%
X90995500Y-95504000D03*
%TD*%
%TO.P,U5,4*%
%TO.N,OUT3*%
X90995500Y-125984000D03*
%TO.P,U5,2*%
%TO.N,IN3-*%
X83375500Y-128524000D03*
%TO.P,U5,3*%
%TO.N,GND2*%
X90995500Y-128524000D03*
D13*
%TO.P,U5,1*%
%TO.N,Net-(R20-Pad1)*%
X83375500Y-125984000D03*
%TD*%
D12*
%TO.P,U6,4*%
%TO.N,OUT7*%
X90995500Y-85344000D03*
%TO.P,U6,2*%
%TO.N,IN7-*%
X83375500Y-87884000D03*
%TO.P,U6,3*%
%TO.N,GND2*%
X90995500Y-87884000D03*
D13*
%TO.P,U6,1*%
%TO.N,Net-(R21-Pad1)*%
X83375500Y-85344000D03*
%TD*%
%TO.P,U7,1*%
%TO.N,Net-(R28-Pad1)*%
X83375500Y-115824000D03*
D12*
%TO.P,U7,3*%
%TO.N,GND2*%
X90995500Y-118364000D03*
%TO.P,U7,2*%
%TO.N,IN4-*%
X83375500Y-118364000D03*
%TO.P,U7,4*%
%TO.N,OUT4*%
X90995500Y-115824000D03*
%TD*%
D13*
%TO.P,U8,1*%
%TO.N,Net-(R29-Pad1)*%
X83375500Y-75184000D03*
D12*
%TO.P,U8,3*%
%TO.N,GND2*%
X90995500Y-77724000D03*
%TO.P,U8,2*%
%TO.N,IN8-*%
X83375500Y-77724000D03*
%TO.P,U8,4*%
%TO.N,OUT8*%
X90995500Y-75184000D03*
%TD*%
D14*
%TO.P,J1,1*%
%TO.N,IN8+*%
X57785000Y-75000000D03*
D15*
%TO.P,J1,2*%
%TO.N,IN8-*%
X57785000Y-80000000D03*
%TO.P,J1,3*%
%TO.N,IN7+*%
X57785000Y-85000000D03*
%TO.P,J1,4*%
%TO.N,IN7-*%
X57785000Y-90000000D03*
%TO.P,J1,5*%
%TO.N,IN6+*%
X57785000Y-95000000D03*
%TO.P,J1,6*%
%TO.N,IN6-*%
X57785000Y-100000000D03*
%TO.P,J1,7*%
%TO.N,IN5+*%
X57785000Y-105000000D03*
%TO.P,J1,8*%
%TO.N,IN5-*%
X57785000Y-110000000D03*
%TD*%
D14*
%TO.P,J2,1*%
%TO.N,IN4+*%
X57785000Y-115000000D03*
D15*
%TO.P,J2,2*%
%TO.N,IN4-*%
X57785000Y-120000000D03*
%TO.P,J2,3*%
%TO.N,IN3+*%
X57785000Y-125000000D03*
%TO.P,J2,4*%
%TO.N,IN3-*%
X57785000Y-130000000D03*
%TO.P,J2,5*%
%TO.N,IN2+*%
X57785000Y-135000000D03*
%TO.P,J2,6*%
%TO.N,IN2-*%
X57785000Y-140000000D03*
%TO.P,J2,7*%
%TO.N,IN1+*%
X57785000Y-145000000D03*
%TO.P,J2,8*%
%TO.N,IN1-*%
X57785000Y-150000000D03*
%TD*%
D14*
%TO.P,J3,1*%
%TO.N,OUT1*%
X117411500Y-110000000D03*
D15*
%TO.P,J3,2*%
%TO.N,OUT2*%
X117411500Y-105000000D03*
%TO.P,J3,3*%
%TO.N,OUT3*%
X117411500Y-100000000D03*
%TO.P,J3,4*%
%TO.N,OUT4*%
X117411500Y-95000000D03*
%TO.P,J3,5*%
%TO.N,OUT5*%
X117411500Y-90000000D03*
%TO.P,J3,6*%
%TO.N,OUT6*%
X117411500Y-85000000D03*
%TO.P,J3,7*%
%TO.N,OUT7*%
X117411500Y-80000000D03*
%TO.P,J3,8*%
%TO.N,OUT8*%
X117411500Y-75000000D03*
%TD*%
D14*
%TO.P,J4,1*%
%TO.N,GND2*%
X117411500Y-126000000D03*
D15*
%TO.P,J4,2*%
%TO.N,VCC*%
X117411500Y-121000000D03*
%TD*%
D16*
%TO.N,*%
X57150000Y-158750000D03*
X118110000Y-158750000D03*
X118110000Y-66040000D03*
X57150000Y-66040000D03*
D17*
%TO.N,IN5+*%
X73799700Y-104203500D03*
%TO.N,IN6+*%
X73875900Y-94043500D03*
%TO.N,IN7+*%
X73672700Y-83883500D03*
%TO.N,IN8+*%
X73723500Y-73787000D03*
%TO.N,IN1+*%
X73825100Y-144843500D03*
%TO.N,IN2+*%
X73748900Y-134683500D03*
%TO.N,IN3+*%
X73825100Y-124523500D03*
%TO.N,IN4+*%
X73698100Y-114363500D03*
%TD*%
D18*
%TO.N,Net-(D1-Pad2)*%
X115522400Y-138890400D02*
X115316000Y-138684000D01*
X115522400Y-145034000D02*
X115522400Y-138890400D01*
%TO.N,GND2*%
X90995500Y-77724000D02*
X93599000Y-80327500D01*
X93421200Y-148844000D02*
X90995500Y-148844000D01*
X93599000Y-148666200D02*
X93421200Y-148844000D01*
X93548200Y-87884000D02*
X93599000Y-87833200D01*
X90995500Y-87884000D02*
X93548200Y-87884000D01*
X93599000Y-80327500D02*
X93599000Y-87833200D01*
X93472000Y-98044000D02*
X93599000Y-97917000D01*
X90995500Y-98044000D02*
X93472000Y-98044000D01*
X93599000Y-87833200D02*
X93599000Y-97917000D01*
X93599000Y-97917000D02*
X93599000Y-108204000D01*
X90995500Y-108204000D02*
X93599000Y-108204000D01*
X90995500Y-118364000D02*
X93599000Y-118364000D01*
X93599000Y-108204000D02*
X93599000Y-118364000D01*
X90995500Y-128524000D02*
X93522800Y-128524000D01*
X93522800Y-128524000D02*
X93599000Y-128447800D01*
X93599000Y-118364000D02*
X93599000Y-128447800D01*
X93573600Y-138684000D02*
X93599000Y-138658600D01*
X93599000Y-128447800D02*
X93599000Y-138658600D01*
X90995500Y-138684000D02*
X93573600Y-138684000D01*
X93599000Y-138658600D02*
X93599000Y-148666200D01*
X93599000Y-148666200D02*
X93599000Y-153111200D01*
X93599000Y-153111200D02*
X96088200Y-155600400D01*
X96088200Y-155600400D02*
X110617000Y-155600400D01*
X110617000Y-155600400D02*
X121361200Y-144856200D01*
X112776000Y-138684000D02*
X112776000Y-135305800D01*
X112877600Y-135204200D02*
X121361200Y-135204200D01*
X112776000Y-135305800D02*
X112877600Y-135204200D01*
X121361200Y-144856200D02*
X121361200Y-135204200D01*
X121361200Y-129949700D02*
X117411500Y-126000000D01*
X121361200Y-135204200D02*
X121361200Y-129949700D01*
%TO.N,IN1-*%
X83375500Y-148844000D02*
X75057000Y-148844000D01*
X75057000Y-148844000D02*
X75057000Y-149783800D01*
X74155300Y-150685500D02*
X57785000Y-150685500D01*
X75057000Y-149783800D02*
X74155300Y-150685500D01*
%TO.N,Net-(D2-Pad2)*%
X70269100Y-148869400D02*
X72491600Y-148869400D01*
X68246600Y-144868900D02*
X68246600Y-146846900D01*
X68246600Y-146846900D02*
X70269100Y-148869400D01*
%TO.N,Net-(D3-Pad2)*%
X70294500Y-108229400D02*
X72517000Y-108229400D01*
X68272000Y-104228900D02*
X68272000Y-106206900D01*
X68272000Y-106206900D02*
X70294500Y-108229400D01*
%TO.N,IN5-*%
X83375500Y-108204000D02*
X75057000Y-108204000D01*
X75057000Y-108204000D02*
X75057000Y-109397800D01*
X74409300Y-110045500D02*
X57785000Y-110045500D01*
X75057000Y-109397800D02*
X74409300Y-110045500D01*
%TO.N,OUT1*%
X99241000Y-145034000D02*
X99314000Y-145034000D01*
X100393500Y-146113500D02*
X100393500Y-148844000D01*
X99314000Y-145034000D02*
X100393500Y-146113500D01*
%TO.N,Net-(D4-Pad2)*%
X102933500Y-146186500D02*
X104086000Y-145034000D01*
X102933500Y-148844000D02*
X102933500Y-146186500D01*
%TO.N,OUT5*%
X99241000Y-104394000D02*
X99314000Y-104394000D01*
X100393500Y-105473500D02*
X100393500Y-108204000D01*
X99314000Y-104394000D02*
X100393500Y-105473500D01*
%TO.N,Net-(D5-Pad2)*%
X104086000Y-104394000D02*
X103886000Y-104394000D01*
X102933500Y-105346500D02*
X102933500Y-108204000D01*
X103886000Y-104394000D02*
X102933500Y-105346500D01*
%TO.N,Net-(D6-Pad2)*%
X70269100Y-138658600D02*
X72491600Y-138658600D01*
X68246600Y-134658100D02*
X68246600Y-136636100D01*
X68246600Y-136636100D02*
X70269100Y-138658600D01*
%TO.N,IN2-*%
X83375500Y-138684000D02*
X75057000Y-138684000D01*
X75057000Y-138684000D02*
X75057000Y-139623800D01*
X74155300Y-140525500D02*
X57785000Y-140525500D01*
X75057000Y-139623800D02*
X74155300Y-140525500D01*
%TO.N,IN6-*%
X83375500Y-98044000D02*
X75057000Y-98044000D01*
X75057000Y-98044000D02*
X75057000Y-99085400D01*
X74256900Y-99885500D02*
X57785000Y-99885500D01*
X75057000Y-99085400D02*
X74256900Y-99885500D01*
%TO.N,Net-(D7-Pad2)*%
X70269100Y-98044000D02*
X72491600Y-98044000D01*
X68246600Y-94043500D02*
X68246600Y-96021500D01*
X68246600Y-96021500D02*
X70269100Y-98044000D01*
%TO.N,OUT6*%
X99241000Y-94234000D02*
X99314000Y-94234000D01*
X100393500Y-95313500D02*
X100393500Y-98044000D01*
X99314000Y-94234000D02*
X100393500Y-95313500D01*
%TO.N,Net-(D9-Pad2)*%
X104086000Y-94234000D02*
X103886000Y-94234000D01*
X102933500Y-95186500D02*
X102933500Y-98044000D01*
X103886000Y-94234000D02*
X102933500Y-95186500D01*
%TO.N,IN3-*%
X83375500Y-128524000D02*
X75057000Y-128524000D01*
X75057000Y-128524000D02*
X75057000Y-129717800D01*
X75057000Y-129717800D02*
X74091800Y-130683000D01*
X58102500Y-130683000D02*
X57785000Y-130365500D01*
X74091800Y-130683000D02*
X58102500Y-130683000D01*
%TO.N,Net-(D10-Pad2)*%
X70294500Y-128549400D02*
X72517000Y-128549400D01*
X68272000Y-124548900D02*
X68272000Y-126526900D01*
X68272000Y-126526900D02*
X70294500Y-128549400D01*
%TO.N,Net-(D8-Pad2)*%
X102933500Y-136029700D02*
X104063800Y-134899400D01*
X102933500Y-138684000D02*
X102933500Y-136029700D01*
%TO.N,OUT2*%
X100393500Y-136055100D02*
X99237800Y-134899400D01*
X100393500Y-138684000D02*
X100393500Y-136055100D01*
%TO.N,IN7-*%
X83375500Y-87884000D02*
X75057000Y-87884000D01*
X75057000Y-87884000D02*
X75057000Y-88874600D01*
X75057000Y-88874600D02*
X74142600Y-89789000D01*
X57848500Y-89789000D02*
X57785000Y-89725500D01*
X74142600Y-89789000D02*
X57848500Y-89789000D01*
%TO.N,Net-(D11-Pad2)*%
X70319900Y-87884000D02*
X72542400Y-87884000D01*
X68297400Y-83883500D02*
X68297400Y-85861500D01*
X68297400Y-85861500D02*
X70319900Y-87884000D01*
%TO.N,Net-(D12-Pad2)*%
X104086000Y-124714000D02*
X103886000Y-124714000D01*
X102933500Y-125666500D02*
X102933500Y-128524000D01*
X103886000Y-124714000D02*
X102933500Y-125666500D01*
%TO.N,OUT3*%
X99241000Y-124714000D02*
X99314000Y-124714000D01*
X100393500Y-125793500D02*
X100393500Y-128524000D01*
X99314000Y-124714000D02*
X100393500Y-125793500D01*
%TO.N,OUT7*%
X99241000Y-84074000D02*
X99314000Y-84074000D01*
X100393500Y-85153500D02*
X100393500Y-87884000D01*
X99314000Y-84074000D02*
X100393500Y-85153500D01*
%TO.N,Net-(D13-Pad2)*%
X104086000Y-84074000D02*
X103886000Y-84074000D01*
X103886000Y-84074000D02*
X102870000Y-85090000D01*
X102870000Y-87820500D02*
X102933500Y-87884000D01*
X102870000Y-85090000D02*
X102870000Y-87820500D01*
%TO.N,IN4-*%
X83375500Y-118364000D02*
X75057000Y-118364000D01*
X75057000Y-118364000D02*
X75057000Y-119253000D01*
X74104500Y-120205500D02*
X57785000Y-120205500D01*
X75057000Y-119253000D02*
X74104500Y-120205500D01*
%TO.N,Net-(D14-Pad2)*%
X70269100Y-118414800D02*
X72491600Y-118414800D01*
X68246600Y-114414300D02*
X68246600Y-116392300D01*
X68246600Y-116392300D02*
X70269100Y-118414800D01*
%TO.N,Net-(D15-Pad2)*%
X68272000Y-73723500D02*
X68272000Y-75701500D01*
X70294500Y-77724000D02*
X72517000Y-77724000D01*
X68272000Y-75701500D02*
X70294500Y-77724000D01*
%TO.N,IN8-*%
X75057000Y-77724000D02*
X83375500Y-77724000D01*
X75057000Y-77724000D02*
X75057000Y-78867000D01*
X75057000Y-78867000D02*
X74295000Y-79629000D01*
X57848500Y-79629000D02*
X57785000Y-79565500D01*
X74295000Y-79629000D02*
X57848500Y-79629000D01*
%TO.N,Net-(D16-Pad2)*%
X104086000Y-114554000D02*
X103886000Y-114554000D01*
X102933500Y-115506500D02*
X102933500Y-118364000D01*
X103886000Y-114554000D02*
X102933500Y-115506500D01*
%TO.N,OUT4*%
X99241000Y-114554000D02*
X99314000Y-114554000D01*
X100393500Y-115633500D02*
X100393500Y-118364000D01*
X99314000Y-114554000D02*
X100393500Y-115633500D01*
%TO.N,Net-(D17-Pad2)*%
X104076500Y-73914000D02*
X103632000Y-73914000D01*
X102933500Y-74612500D02*
X102933500Y-77724000D01*
X103632000Y-73914000D02*
X102933500Y-74612500D01*
%TO.N,OUT8*%
X99250500Y-73914000D02*
X99695000Y-73914000D01*
X100393500Y-74612500D02*
X100393500Y-77724000D01*
X99695000Y-73914000D02*
X100393500Y-74612500D01*
%TO.N,IN5+*%
X71237500Y-104203500D02*
X73799700Y-104203500D01*
X73799700Y-104203500D02*
X76400000Y-104203500D01*
%TO.N,IN6+*%
X71237500Y-94043500D02*
X73875900Y-94043500D01*
X73875900Y-94043500D02*
X76400000Y-94043500D01*
%TO.N,IN7+*%
X71237500Y-83883500D02*
X73672700Y-83883500D01*
X73672700Y-83883500D02*
X76400000Y-83883500D01*
%TO.N,IN8+*%
X73787000Y-73723500D02*
X73723500Y-73787000D01*
X73787000Y-73723500D02*
X71247000Y-73723500D01*
X76390500Y-73723500D02*
X73787000Y-73723500D01*
%TO.N,IN1+*%
X71237500Y-144843500D02*
X73825100Y-144843500D01*
X73825100Y-144843500D02*
X76400000Y-144843500D01*
%TO.N,IN2+*%
X71237500Y-134683500D02*
X73748900Y-134683500D01*
X73748900Y-134683500D02*
X76336500Y-134683500D01*
%TO.N,IN3+*%
X71237500Y-124523500D02*
X73825100Y-124523500D01*
X73825100Y-124523500D02*
X76400000Y-124523500D01*
%TO.N,IN4+*%
X71237500Y-114363500D02*
X73698100Y-114363500D01*
X73698100Y-114363500D02*
X76400000Y-114363500D01*
%TO.N,VCC*%
X96266000Y-145034000D02*
X96266000Y-136144000D01*
X96266000Y-136144000D02*
X96266000Y-124714000D01*
X96266000Y-73923500D02*
X96275500Y-73914000D01*
X96266000Y-124714000D02*
X96266000Y-73923500D01*
X107051500Y-124179520D02*
X107061000Y-124189020D01*
X107051500Y-73914000D02*
X107051500Y-124179520D01*
X96266000Y-145034000D02*
X96266000Y-152095200D01*
X96266000Y-152095200D02*
X97434400Y-153263600D01*
X97434400Y-153263600D02*
X105867200Y-153263600D01*
X107061000Y-152069800D02*
X107061000Y-145034000D01*
X105867200Y-153263600D02*
X107061000Y-152069800D01*
X107061000Y-145034000D02*
X112547400Y-145034000D01*
X107124500Y-126174500D02*
X107061000Y-126111000D01*
X117424200Y-121005600D02*
X107137200Y-121005600D01*
X107061000Y-124189020D02*
X107061000Y-126111000D01*
X107061000Y-126111000D02*
X107061000Y-145034000D01*
%TO.N,Net-(R4-Pad1)*%
X81915000Y-144843500D02*
X83375500Y-146304000D01*
X79375000Y-144843500D02*
X81915000Y-144843500D01*
%TO.N,Net-(R5-Pad1)*%
X81915000Y-104203500D02*
X83375500Y-105664000D01*
X79375000Y-104203500D02*
X81915000Y-104203500D01*
%TO.N,Net-(R12-Pad1)*%
X81915000Y-134683500D02*
X83375500Y-136144000D01*
X79311500Y-134683500D02*
X81915000Y-134683500D01*
%TO.N,Net-(R13-Pad1)*%
X81915000Y-94043500D02*
X83375500Y-95504000D01*
X79375000Y-94043500D02*
X81915000Y-94043500D01*
%TO.N,Net-(R20-Pad1)*%
X81915000Y-124523500D02*
X83375500Y-125984000D01*
X79375000Y-124523500D02*
X81915000Y-124523500D01*
%TO.N,Net-(R21-Pad1)*%
X81915000Y-83883500D02*
X83375500Y-85344000D01*
X79375000Y-83883500D02*
X81915000Y-83883500D01*
%TO.N,Net-(R28-Pad1)*%
X81902300Y-114350800D02*
X83375500Y-115824000D01*
X79124200Y-114350800D02*
X81902300Y-114350800D01*
%TO.N,Net-(R29-Pad1)*%
X83375500Y-75184000D02*
X83375500Y-75057000D01*
X82042000Y-73723500D02*
X79365500Y-73723500D01*
X83375500Y-75057000D02*
X82042000Y-73723500D01*
%TD*%
M02*
