M48
; DRILL file {KiCad (5.1.7)-1} date 10/26/20 19:12:00
; FORMAT={2:4/ absolute / inch / suppress trailing zeros}
; #@! TF.CreationDate,2020-10-26T19:12:00+02:00
; #@! TF.GenerationSoftware,Kicad,Pcbnew,(5.1.7)-1
FMAT,2
INCH,LZ
T1C0.0157
T2C0.0315
T3C0.0354
T4C0.0512
T5C0.1378
%
G90
G05
T1
X029005Y-033025
X029015Y-045025
X029025Y-02905
X029035Y-053025
X029055Y-041025
X029065Y-049025
X029065Y-057025
X029085Y-037025
T2
X032825Y-0456
X032825Y-0466
X035825Y-0456
X035825Y-0466
X032825Y-0496
X032825Y-0506
X035825Y-0496
X035825Y-0506
X032825Y-0376
X032825Y-0386
X035825Y-0376
X035825Y-0386
X032825Y-0576
X032825Y-0586
X035825Y-0576
X035825Y-0586
X032825Y-0536
X032825Y-0546
X035825Y-0536
X035825Y-0546
X032825Y-0296
X032825Y-0306
X035825Y-0296
X035825Y-0306
X032825Y-0336
X032825Y-0346
X035825Y-0336
X035825Y-0346
X032825Y-0416
X032825Y-0426
X035825Y-0416
X035825Y-0426
T3
X039525Y-0506
X040525Y-0506
X02855Y-0466
X02955Y-0466
X02855Y-0386
X02955Y-0386
X02855Y-0306
X02955Y-0306
X02855Y-0546
X02955Y-0546
X039525Y-0306
X040525Y-0306
X039525Y-0466
X040525Y-0466
X02855Y-0586
X02955Y-0586
X02855Y-0346
X02955Y-0346
X02855Y-0506
X02955Y-0506
X039525Y-0546
X040525Y-0546
X039525Y-0426
X040525Y-0426
X039525Y-0586
X040525Y-0586
X039525Y-0346
X040525Y-0346
X0444Y-0546
X0454Y-0546
X039525Y-0386
X040525Y-0386
X02855Y-0426
X02955Y-0426
T4
X02275Y-029528
X02275Y-031496
X02275Y-033465
X02275Y-035433
X02275Y-037402
X02275Y-03937
X02275Y-041339
X02275Y-043307
X046225Y-047638
X046225Y-049606
X046225Y-029528
X046225Y-031496
X046225Y-033465
X046225Y-035433
X046225Y-037402
X046225Y-03937
X046225Y-041339
X046225Y-043307
X02275Y-045276
X02275Y-047244
X02275Y-049213
X02275Y-051181
X02275Y-05315
X02275Y-055118
X02275Y-057087
X02275Y-059055
T5
X0225Y-026
X0225Y-0625
X0465Y-026
X0465Y-0625
T0
M30
